{
	"asset":{
		"generator":"Khronos glTF Blender I/O v3.5.30",
		"version":"2.0"
	},
	"extensionsUsed":[
		"KHR_materials_specular",
		"KHR_materials_ior"
	],
	"scene":0,
	"scenes":[
		{
			"name":"Scene",
			"nodes":[
				0,
				1
			]
		}
	],
	"nodes":[
		{
			"mesh":0,
			"name":"body",
			"rotation":[
				0.7071068286895752,
				0,
				0,
				0.7071068286895752
			],
			"scale":[
				0.009999999776482582,
				0.009999999776482582,
				0.009999999776482582
			]
		},
		{
			"mesh":1,
			"name":"eyes",
			"rotation":[
				0.7071068286895752,
				0,
				0,
				0.7071068286895752
			],
			"scale":[
				0.009999999776482582,
				0.009999999776482582,
				0.009999999776482582
			]
		}
	],
	"materials":[
		{
			"doubleSided":true,
			"extensions":{
				"KHR_materials_specular":{
					"specularColorFactor":[
						2.371357614441398,
						2.371357614441398,
						2.371357614441398
					]
				},
				"KHR_materials_ior":{
					"ior":1.4500000476837158
				}
			},
			"name":"mouse_by_dommk_body",
			"pbrMetallicRoughness":{
				"baseColorTexture":{
					"index":0
				},
				"roughnessFactor":0.5527864098548889
			}
		},
		{
			"doubleSided":true,
			"extensions":{
				"KHR_materials_specular":{
					"specularColorFactor":[
						2.371357614441398,
						2.371357614441398,
						2.371357614441398
					]
				},
				"KHR_materials_ior":{
					"ior":1.4500000476837158
				}
			},
			"name":"mouse_by_dommk_eyes",
			"pbrMetallicRoughness":{
				"baseColorTexture":{
					"index":1
				},
				"roughnessFactor":0.5527864098548889
			}
		}
	],
	"meshes":[
		{
			"name":"Group14230.001",
			"primitives":[
				{
					"attributes":{
						"POSITION":0,
						"TEXCOORD_0":1,
						"NORMAL":2
					},
					"indices":3,
					"material":0
				}
			]
		},
		{
			"name":"Group17904.001",
			"primitives":[
				{
					"attributes":{
						"POSITION":4,
						"TEXCOORD_0":5,
						"NORMAL":6
					},
					"indices":7,
					"material":1
				}
			]
		}
	],
	"textures":[
		{
			"sampler":0,
			"source":0
		},
		{
			"sampler":0,
			"source":1
		}
	],
	"images":[
		{
			"mimeType":"image/png",
			"name":"mouse_by_dommk_body_Base_Color",
			"uri":"mouse_by_dommk_body_Base_Color.png"
		},
		{
			"mimeType":"image/png",
			"name":"mouse_by_dommk_eyes_Base_Color",
			"uri":"mouse_by_dommk_eyes_Base_Color.png"
		}
	],
	"accessors":[
		{
			"bufferView":0,
			"componentType":5126,
			"count":14927,
			"max":[
				1.1833089590072632,
				2.8419132232666016,
				0.4640742242336273
			],
			"min":[
				-1.1833089590072632,
				-0.0019495487213134766,
				-1.8592398166656494
			],
			"type":"VEC3"
		},
		{
			"bufferView":1,
			"componentType":5126,
			"count":14927,
			"type":"VEC2"
		},
		{
			"bufferView":2,
			"componentType":5126,
			"count":14927,
			"type":"VEC3"
		},
		{
			"bufferView":3,
			"componentType":5123,
			"count":72600,
			"type":"SCALAR"
		},
		{
			"bufferView":4,
			"componentType":5126,
			"count":3248,
			"max":[
				0.3464288115501404,
				2.2906711101531982,
				0.1762368530035019
			],
			"min":[
				-0.3464288115501404,
				1.9564976692199707,
				-0.15364527702331543
			],
			"type":"VEC3"
		},
		{
			"bufferView":5,
			"componentType":5126,
			"count":3248,
			"type":"VEC2"
		},
		{
			"bufferView":6,
			"componentType":5126,
			"count":3248,
			"type":"VEC3"
		},
		{
			"bufferView":7,
			"componentType":5123,
			"count":17088,
			"type":"SCALAR"
		}
	],
	"bufferViews":[
		{
			"buffer":0,
			"byteLength":179124,
			"byteOffset":0,
			"target":34962
		},
		{
			"buffer":0,
			"byteLength":119416,
			"byteOffset":179124,
			"target":34962
		},
		{
			"buffer":0,
			"byteLength":179124,
			"byteOffset":298540,
			"target":34962
		},
		{
			"buffer":0,
			"byteLength":145200,
			"byteOffset":477664,
			"target":34963
		},
		{
			"buffer":0,
			"byteLength":38976,
			"byteOffset":622864,
			"target":34962
		},
		{
			"buffer":0,
			"byteLength":25984,
			"byteOffset":661840,
			"target":34962
		},
		{
			"buffer":0,
			"byteLength":38976,
			"byteOffset":687824,
			"target":34962
		},
		{
			"buffer":0,
			"byteLength":34176,
			"byteOffset":726800,
			"target":34963
		}
	],
	"samplers":[
		{
			"magFilter":9729,
			"minFilter":9987
		}
	],
	"buffers":[
		{
			"byteLength":760976,
			"uri":"mouse.bin"
		}
	]
}
