{
	"asset":{
		"generator":"Khronos glTF Blender I/O v3.5.30",
		"version":"2.0"
	},
	"extensionsUsed":[
		"KHR_materials_specular",
		"KHR_materials_ior"
	],
	"scene":0,
	"scenes":[
		{
			"name":"Scene",
			"nodes":[
				0,
				1,
				2,
				3,
				4,
				5,
				6,
				7,
				8,
				9,
				10,
				11,
				12
			]
		}
	],
	"nodes":[
		{
			"mesh":0,
			"name":"\u7acb\u65b9\u4f53"
		},
		{
			"mesh":1,
			"name":"\u7acb\u65b9\u4f53.001"
		},
		{
			"mesh":2,
			"name":"\u7acb\u65b9\u4f53.002",
			"translation":[
				0,
				0,
				-10
			]
		},
		{
			"mesh":3,
			"name":"\u7acb\u65b9\u4f53.004",
			"translation":[
				0,
				0,
				-10
			]
		},
		{
			"mesh":4,
			"name":"\u7acb\u65b9\u4f53.005",
			"translation":[
				0,
				0,
				-10
			]
		},
		{
			"mesh":5,
			"name":"\u7acb\u65b9\u4f53.006"
		},
		{
			"mesh":6,
			"name":"\u7acb\u65b9\u4f53.007"
		},
		{
			"mesh":7,
			"name":"\u7acb\u65b9\u4f53.008"
		},
		{
			"mesh":8,
			"name":"\u7acb\u65b9\u4f53.009"
		},
		{
			"mesh":9,
			"name":"\u7acb\u65b9\u4f53.010"
		},
		{
			"mesh":10,
			"name":"\u5e73\u9762.005"
		},
		{
			"mesh":11,
			"name":"\u7acb\u65b9\u4f53.003"
		},
		{
			"mesh":12,
			"name":"\u7acb\u65b9\u4f53.011",
			"translation":[
				0,
				-1.0999999046325684,
				0
			]
		}
	],
	"materials":[
		{
			"doubleSided":true,
			"extensions":{
				"KHR_materials_specular":{
					"specularColorTexture":{
						"index":0
					}
				},
				"KHR_materials_ior":{
					"ior":1.4500000476837158
				}
			},
			"name":"Wall.001",
			"normalTexture":{
				"index":1
			},
			"pbrMetallicRoughness":{
				"baseColorTexture":{
					"index":2
				},
				"metallicFactor":0
			}
		},
		{
			"doubleSided":true,
			"extensions":{
				"KHR_materials_specular":{
					"specularColorFactor":[
						0,
						0,
						0
					]
				},
				"KHR_materials_ior":{
					"ior":1.4500000476837158
				}
			},
			"name":"Wall_Under",
			"normalTexture":{
				"index":3
			},
			"pbrMetallicRoughness":{
				"baseColorTexture":{
					"index":4
				},
				"metallicFactor":0,
				"metallicRoughnessTexture":{
					"index":5
				}
			}
		},
		{
			"doubleSided":true,
			"name":"Tile",
			"normalTexture":{
				"index":6
			},
			"pbrMetallicRoughness":{
				"baseColorTexture":{
					"index":7
				},
				"metallicFactor":0,
				"metallicRoughnessTexture":{
					"index":8
				}
			}
		},
		{
			"doubleSided":true,
			"name":"floor",
			"normalTexture":{
				"index":9
			},
			"pbrMetallicRoughness":{
				"baseColorTexture":{
					"index":10
				},
				"metallicFactor":0,
				"roughnessFactor":0.5
			}
		}
	],
	"meshes":[
		{
			"name":"\u7acb\u65b9\u4f53.001",
			"primitives":[
				{
					"attributes":{
						"POSITION":0,
						"TEXCOORD_0":1,
						"NORMAL":2
					},
					"indices":3,
					"material":0
				},
				{
					"attributes":{
						"POSITION":4,
						"TEXCOORD_0":5,
						"NORMAL":6
					},
					"indices":7,
					"material":1
				}
			]
		},
		{
			"name":"\u7acb\u65b9\u4f53.002",
			"primitives":[
				{
					"attributes":{
						"POSITION":8,
						"TEXCOORD_0":9,
						"NORMAL":10
					},
					"indices":11,
					"material":0
				},
				{
					"attributes":{
						"POSITION":12,
						"TEXCOORD_0":13,
						"NORMAL":14
					},
					"indices":7,
					"material":1
				}
			]
		},
		{
			"name":"\u7acb\u65b9\u4f53.003",
			"primitives":[
				{
					"attributes":{
						"POSITION":15,
						"TEXCOORD_0":16,
						"NORMAL":17
					},
					"indices":11,
					"material":0
				},
				{
					"attributes":{
						"POSITION":18,
						"TEXCOORD_0":19,
						"NORMAL":20
					},
					"indices":7,
					"material":1
				}
			]
		},
		{
			"name":"\u7acb\u65b9\u4f53.005",
			"primitives":[
				{
					"attributes":{
						"POSITION":21,
						"TEXCOORD_0":22,
						"NORMAL":23
					},
					"indices":3,
					"material":0
				},
				{
					"attributes":{
						"POSITION":24,
						"TEXCOORD_0":25,
						"NORMAL":26
					},
					"indices":7,
					"material":1
				}
			]
		},
		{
			"name":"\u7acb\u65b9\u4f53.006",
			"primitives":[
				{
					"attributes":{
						"POSITION":27,
						"TEXCOORD_0":28,
						"NORMAL":29
					},
					"indices":11,
					"material":0
				},
				{
					"attributes":{
						"POSITION":30,
						"TEXCOORD_0":31,
						"NORMAL":32
					},
					"indices":7,
					"material":1
				}
			]
		},
		{
			"name":"\u7acb\u65b9\u4f53.007",
			"primitives":[
				{
					"attributes":{
						"POSITION":33,
						"TEXCOORD_0":34,
						"NORMAL":35
					},
					"indices":11,
					"material":0
				},
				{
					"attributes":{
						"POSITION":36,
						"TEXCOORD_0":37,
						"NORMAL":38
					},
					"indices":7,
					"material":1
				}
			]
		},
		{
			"name":"\u7acb\u65b9\u4f53.008",
			"primitives":[
				{
					"attributes":{
						"POSITION":39,
						"TEXCOORD_0":40,
						"NORMAL":41
					},
					"indices":3,
					"material":0
				},
				{
					"attributes":{
						"POSITION":42,
						"TEXCOORD_0":43,
						"NORMAL":44
					},
					"indices":7,
					"material":1
				}
			]
		},
		{
			"name":"\u7acb\u65b9\u4f53.009",
			"primitives":[
				{
					"attributes":{
						"POSITION":45,
						"TEXCOORD_0":46,
						"NORMAL":47
					},
					"indices":3,
					"material":0
				},
				{
					"attributes":{
						"POSITION":48,
						"TEXCOORD_0":49,
						"NORMAL":50
					},
					"indices":7,
					"material":1
				}
			]
		},
		{
			"name":"\u7acb\u65b9\u4f53.010",
			"primitives":[
				{
					"attributes":{
						"POSITION":51,
						"TEXCOORD_0":52,
						"NORMAL":53
					},
					"indices":54,
					"material":0
				},
				{
					"attributes":{
						"POSITION":55,
						"TEXCOORD_0":56,
						"NORMAL":57
					},
					"indices":7,
					"material":1
				}
			]
		},
		{
			"name":"\u7acb\u65b9\u4f53.011",
			"primitives":[
				{
					"attributes":{
						"POSITION":58,
						"TEXCOORD_0":59,
						"NORMAL":60
					},
					"indices":3,
					"material":0
				},
				{
					"attributes":{
						"POSITION":61,
						"TEXCOORD_0":62,
						"NORMAL":63
					},
					"indices":7,
					"material":1
				}
			]
		},
		{
			"name":"\u5e73\u9762.004",
			"primitives":[
				{
					"attributes":{
						"POSITION":64,
						"TEXCOORD_0":65,
						"NORMAL":66
					},
					"indices":67,
					"material":1
				}
			]
		},
		{
			"name":"\u7acb\u65b9\u4f53.004",
			"primitives":[
				{
					"attributes":{
						"POSITION":68,
						"TEXCOORD_0":69,
						"NORMAL":70
					},
					"indices":71,
					"material":2
				}
			]
		},
		{
			"name":"\u7acb\u65b9\u4f53",
			"primitives":[
				{
					"attributes":{
						"POSITION":72,
						"TEXCOORD_0":73,
						"NORMAL":74
					},
					"indices":75,
					"material":3
				}
			]
		}
	],
	"textures":[
		{
			"sampler":0,
			"source":0
		},
		{
			"sampler":0,
			"source":1
		},
		{
			"sampler":0,
			"source":2
		},
		{
			"sampler":0,
			"source":3
		},
		{
			"sampler":0,
			"source":4
		},
		{
			"sampler":0,
			"source":5
		},
		{
			"sampler":0,
			"source":6
		},
		{
			"sampler":0,
			"source":7
		},
		{
			"sampler":0,
			"source":8
		},
		{
			"sampler":0,
			"source":9
		},
		{
			"sampler":0,
			"source":10
		}
	],
	"images":[
		{
			"mimeType":"image/png",
			"name":"Image",
			"uri":"Image.png"
		},
		{
			"mimeType":"image/png",
			"name":"white_concrete_Normal",
			"uri":"white_concrete_Normal.png"
		},
		{
			"mimeType":"image/png",
			"name":"white_concrete_Diffuse",
			"uri":"white_concrete_Diffuse.png"
		},
		{
			"mimeType":"image/png",
			"name":"Wood028_4K-PNG_NormalGL",
			"uri":"Wood028_4K-PNG_NormalGL.png"
		},
		{
			"mimeType":"image/png",
			"name":"Wood028_4K-PNG_Color",
			"uri":"Wood028_4K-PNG_Color.png"
		},
		{
			"mimeType":"image/png",
			"name":"Wood028_4K-PNG_Roughness",
			"uri":"Wood028_4K-PNG_Roughness.png"
		},
		{
			"mimeType":"image/png",
			"name":"Tiles105_4K-PNG_NormalGL",
			"uri":"Tiles105_4K-PNG_NormalGL.png"
		},
		{
			"mimeType":"image/png",
			"name":"Tiles105_4K-PNG_Color",
			"uri":"Tiles105_4K-PNG_Color.png"
		},
		{
			"mimeType":"image/png",
			"name":"Tiles105_4K-PNG_Roughness",
			"uri":"Tiles105_4K-PNG_Roughness.png"
		},
		{
			"mimeType":"image/png",
			"name":"laminate_floor_nor_gl_4k",
			"uri":"laminate_floor_nor_gl_4k.png"
		},
		{
			"mimeType":"image/png",
			"name":"laminate_floor_diff_4k",
			"uri":"laminate_floor_diff_4k.png"
		}
	],
	"accessors":[
		{
			"bufferView":0,
			"componentType":5126,
			"count":24,
			"max":[
				7.5,
				6.989999771118164,
				15.125
			],
			"min":[
				-7.5,
				-0.009999999776482582,
				14.875
			],
			"type":"VEC3"
		},
		{
			"bufferView":1,
			"componentType":5126,
			"count":24,
			"type":"VEC2"
		},
		{
			"bufferView":2,
			"componentType":5126,
			"count":24,
			"type":"VEC3"
		},
		{
			"bufferView":3,
			"componentType":5123,
			"count":36,
			"type":"SCALAR"
		},
		{
			"bufferView":4,
			"componentType":5126,
			"count":16,
			"max":[
				7.5,
				0.10199989378452301,
				15.125
			],
			"min":[
				-7.5,
				-0.009999999776482582,
				14.875
			],
			"type":"VEC3"
		},
		{
			"bufferView":5,
			"componentType":5126,
			"count":16,
			"type":"VEC2"
		},
		{
			"bufferView":6,
			"componentType":5126,
			"count":16,
			"type":"VEC3"
		},
		{
			"bufferView":7,
			"componentType":5123,
			"count":24,
			"type":"SCALAR"
		},
		{
			"bufferView":8,
			"componentType":5126,
			"count":24,
			"max":[
				15,
				6.989998817443848,
				15.125
			],
			"min":[
				12,
				-0.009999999776482582,
				14.875
			],
			"type":"VEC3"
		},
		{
			"bufferView":9,
			"componentType":5126,
			"count":24,
			"type":"VEC2"
		},
		{
			"bufferView":10,
			"componentType":5126,
			"count":24,
			"type":"VEC3"
		},
		{
			"bufferView":11,
			"componentType":5123,
			"count":36,
			"type":"SCALAR"
		},
		{
			"bufferView":12,
			"componentType":5126,
			"count":16,
			"max":[
				15,
				0.10199988633394241,
				15.125
			],
			"min":[
				12,
				-0.009999999776482582,
				14.875
			],
			"type":"VEC3"
		},
		{
			"bufferView":13,
			"componentType":5126,
			"count":16,
			"type":"VEC2"
		},
		{
			"bufferView":14,
			"componentType":5126,
			"count":16,
			"type":"VEC3"
		},
		{
			"bufferView":15,
			"componentType":5126,
			"count":24,
			"max":[
				-12,
				6.989999771118164,
				0.125
			],
			"min":[
				-15,
				-0.009999999776482582,
				-0.125
			],
			"type":"VEC3"
		},
		{
			"bufferView":16,
			"componentType":5126,
			"count":24,
			"type":"VEC2"
		},
		{
			"bufferView":17,
			"componentType":5126,
			"count":24,
			"type":"VEC3"
		},
		{
			"bufferView":18,
			"componentType":5126,
			"count":16,
			"max":[
				-12,
				0.10199989378452301,
				0.125
			],
			"min":[
				-15,
				-0.009999999776482582,
				-0.125
			],
			"type":"VEC3"
		},
		{
			"bufferView":19,
			"componentType":5126,
			"count":16,
			"type":"VEC2"
		},
		{
			"bufferView":20,
			"componentType":5126,
			"count":16,
			"type":"VEC3"
		},
		{
			"bufferView":21,
			"componentType":5126,
			"count":24,
			"max":[
				7.5,
				6.989999771118164,
				0.125
			],
			"min":[
				-7.5,
				-0.009999999776482582,
				-0.125
			],
			"type":"VEC3"
		},
		{
			"bufferView":22,
			"componentType":5126,
			"count":24,
			"type":"VEC2"
		},
		{
			"bufferView":23,
			"componentType":5126,
			"count":24,
			"type":"VEC3"
		},
		{
			"bufferView":24,
			"componentType":5126,
			"count":16,
			"max":[
				7.5,
				0.10199989378452301,
				0.125
			],
			"min":[
				-7.5,
				-0.009999999776482582,
				-0.125
			],
			"type":"VEC3"
		},
		{
			"bufferView":25,
			"componentType":5126,
			"count":16,
			"type":"VEC2"
		},
		{
			"bufferView":26,
			"componentType":5126,
			"count":16,
			"type":"VEC3"
		},
		{
			"bufferView":27,
			"componentType":5126,
			"count":24,
			"max":[
				15,
				6.989998817443848,
				0.125
			],
			"min":[
				12,
				-0.009999999776482582,
				-0.125
			],
			"type":"VEC3"
		},
		{
			"bufferView":28,
			"componentType":5126,
			"count":24,
			"type":"VEC2"
		},
		{
			"bufferView":29,
			"componentType":5126,
			"count":24,
			"type":"VEC3"
		},
		{
			"bufferView":30,
			"componentType":5126,
			"count":16,
			"max":[
				15,
				0.10199988633394241,
				0.125
			],
			"min":[
				12,
				-0.009999999776482582,
				-0.125
			],
			"type":"VEC3"
		},
		{
			"bufferView":31,
			"componentType":5126,
			"count":16,
			"type":"VEC2"
		},
		{
			"bufferView":32,
			"componentType":5126,
			"count":16,
			"type":"VEC3"
		},
		{
			"bufferView":33,
			"componentType":5126,
			"count":24,
			"max":[
				-12,
				6.989999771118164,
				15.125
			],
			"min":[
				-15,
				-0.009999999776482582,
				14.875
			],
			"type":"VEC3"
		},
		{
			"bufferView":34,
			"componentType":5126,
			"count":24,
			"type":"VEC2"
		},
		{
			"bufferView":35,
			"componentType":5126,
			"count":24,
			"type":"VEC3"
		},
		{
			"bufferView":36,
			"componentType":5126,
			"count":16,
			"max":[
				-12,
				0.10199989378452301,
				15.125
			],
			"min":[
				-15,
				-0.009999999776482582,
				14.875
			],
			"type":"VEC3"
		},
		{
			"bufferView":37,
			"componentType":5126,
			"count":16,
			"type":"VEC2"
		},
		{
			"bufferView":38,
			"componentType":5126,
			"count":16,
			"type":"VEC3"
		},
		{
			"bufferView":39,
			"componentType":5126,
			"count":24,
			"max":[
				15.125000953674316,
				12.482141494750977,
				40.00001907348633
			],
			"min":[
				14.87499713897705,
				-0.01785675249993801,
				-39.99998092651367
			],
			"type":"VEC3"
		},
		{
			"bufferView":40,
			"componentType":5126,
			"count":24,
			"type":"VEC2"
		},
		{
			"bufferView":41,
			"componentType":5126,
			"count":24,
			"type":"VEC3"
		},
		{
			"bufferView":42,
			"componentType":5126,
			"count":16,
			"max":[
				15.125000953674316,
				0.18214325606822968,
				40.00001907348633
			],
			"min":[
				14.87499713897705,
				-0.01785675249993801,
				-39.99998092651367
			],
			"type":"VEC3"
		},
		{
			"bufferView":43,
			"componentType":5126,
			"count":16,
			"type":"VEC2"
		},
		{
			"bufferView":44,
			"componentType":5126,
			"count":16,
			"type":"VEC3"
		},
		{
			"bufferView":45,
			"componentType":5126,
			"count":24,
			"max":[
				-14.874999046325684,
				12.482141494750977,
				40.00001907348633
			],
			"min":[
				-15.12500286102295,
				-0.01785675249993801,
				-39.99998092651367
			],
			"type":"VEC3"
		},
		{
			"bufferView":46,
			"componentType":5126,
			"count":24,
			"type":"VEC2"
		},
		{
			"bufferView":47,
			"componentType":5126,
			"count":24,
			"type":"VEC3"
		},
		{
			"bufferView":48,
			"componentType":5126,
			"count":16,
			"max":[
				-14.874999046325684,
				0.18214325606822968,
				40.00001907348633
			],
			"min":[
				-15.12500286102295,
				-0.01785675249993801,
				-39.99998092651367
			],
			"type":"VEC3"
		},
		{
			"bufferView":49,
			"componentType":5126,
			"count":16,
			"type":"VEC2"
		},
		{
			"bufferView":50,
			"componentType":5126,
			"count":16,
			"type":"VEC3"
		},
		{
			"bufferView":51,
			"componentType":5126,
			"count":24,
			"max":[
				15.000008583068848,
				12.482141494750977,
				40.12501525878906
			],
			"min":[
				-14.999991416931152,
				-0.01785675249993801,
				39.87500762939453
			],
			"type":"VEC3"
		},
		{
			"bufferView":52,
			"componentType":5126,
			"count":24,
			"type":"VEC2"
		},
		{
			"bufferView":53,
			"componentType":5126,
			"count":24,
			"type":"VEC3"
		},
		{
			"bufferView":54,
			"componentType":5123,
			"count":36,
			"type":"SCALAR"
		},
		{
			"bufferView":55,
			"componentType":5126,
			"count":16,
			"max":[
				15.000008583068848,
				0.18214325606822968,
				40.12501525878906
			],
			"min":[
				-14.999991416931152,
				-0.01785675249993801,
				39.87500762939453
			],
			"type":"VEC3"
		},
		{
			"bufferView":56,
			"componentType":5126,
			"count":16,
			"type":"VEC2"
		},
		{
			"bufferView":57,
			"componentType":5126,
			"count":16,
			"type":"VEC3"
		},
		{
			"bufferView":58,
			"componentType":5126,
			"count":24,
			"max":[
				15.000008583068848,
				12.482141494750977,
				-39.87498474121094
			],
			"min":[
				-14.999991416931152,
				-0.01785675249993801,
				-40.12499237060547
			],
			"type":"VEC3"
		},
		{
			"bufferView":59,
			"componentType":5126,
			"count":24,
			"type":"VEC2"
		},
		{
			"bufferView":60,
			"componentType":5126,
			"count":24,
			"type":"VEC3"
		},
		{
			"bufferView":61,
			"componentType":5126,
			"count":16,
			"max":[
				15.000008583068848,
				0.18214325606822968,
				-39.87498474121094
			],
			"min":[
				-14.999991416931152,
				-0.01785675249993801,
				-40.12499237060547
			],
			"type":"VEC3"
		},
		{
			"bufferView":62,
			"componentType":5126,
			"count":16,
			"type":"VEC2"
		},
		{
			"bufferView":63,
			"componentType":5126,
			"count":16,
			"type":"VEC3"
		},
		{
			"bufferView":64,
			"componentType":5126,
			"count":256,
			"max":[
				4.300000190734863,
				0.7600018382072449,
				-33.15999984741211
			],
			"min":[
				-4.300000190734863,
				0.0099983811378479,
				-40.01000213623047
			],
			"type":"VEC3"
		},
		{
			"bufferView":65,
			"componentType":5126,
			"count":256,
			"type":"VEC2"
		},
		{
			"bufferView":66,
			"componentType":5126,
			"count":256,
			"type":"VEC3"
		},
		{
			"bufferView":67,
			"componentType":5123,
			"count":498,
			"type":"SCALAR"
		},
		{
			"bufferView":68,
			"componentType":5126,
			"count":24,
			"max":[
				2.549999952316284,
				0.7599999904632568,
				-34.90999984741211
			],
			"min":[
				-2.549999952316284,
				0.009999999776482582,
				-40.01000213623047
			],
			"type":"VEC3"
		},
		{
			"bufferView":69,
			"componentType":5126,
			"count":24,
			"type":"VEC2"
		},
		{
			"bufferView":70,
			"componentType":5126,
			"count":24,
			"type":"VEC3"
		},
		{
			"bufferView":71,
			"componentType":5123,
			"count":36,
			"type":"SCALAR"
		},
		{
			"bufferView":72,
			"componentType":5126,
			"count":24,
			"max":[
				15,
				1.125,
				40
			],
			"min":[
				-15,
				0.875,
				-40
			],
			"type":"VEC3"
		},
		{
			"bufferView":73,
			"componentType":5126,
			"count":24,
			"type":"VEC2"
		},
		{
			"bufferView":74,
			"componentType":5126,
			"count":24,
			"type":"VEC3"
		},
		{
			"bufferView":75,
			"componentType":5123,
			"count":36,
			"type":"SCALAR"
		}
	],
	"bufferViews":[
		{
			"buffer":0,
			"byteLength":288,
			"byteOffset":0,
			"target":34962
		},
		{
			"buffer":0,
			"byteLength":192,
			"byteOffset":288,
			"target":34962
		},
		{
			"buffer":0,
			"byteLength":288,
			"byteOffset":480,
			"target":34962
		},
		{
			"buffer":0,
			"byteLength":72,
			"byteOffset":768,
			"target":34963
		},
		{
			"buffer":0,
			"byteLength":192,
			"byteOffset":840,
			"target":34962
		},
		{
			"buffer":0,
			"byteLength":128,
			"byteOffset":1032,
			"target":34962
		},
		{
			"buffer":0,
			"byteLength":192,
			"byteOffset":1160,
			"target":34962
		},
		{
			"buffer":0,
			"byteLength":48,
			"byteOffset":1352,
			"target":34963
		},
		{
			"buffer":0,
			"byteLength":288,
			"byteOffset":1400,
			"target":34962
		},
		{
			"buffer":0,
			"byteLength":192,
			"byteOffset":1688,
			"target":34962
		},
		{
			"buffer":0,
			"byteLength":288,
			"byteOffset":1880,
			"target":34962
		},
		{
			"buffer":0,
			"byteLength":72,
			"byteOffset":2168,
			"target":34963
		},
		{
			"buffer":0,
			"byteLength":192,
			"byteOffset":2240,
			"target":34962
		},
		{
			"buffer":0,
			"byteLength":128,
			"byteOffset":2432,
			"target":34962
		},
		{
			"buffer":0,
			"byteLength":192,
			"byteOffset":2560,
			"target":34962
		},
		{
			"buffer":0,
			"byteLength":288,
			"byteOffset":2752,
			"target":34962
		},
		{
			"buffer":0,
			"byteLength":192,
			"byteOffset":3040,
			"target":34962
		},
		{
			"buffer":0,
			"byteLength":288,
			"byteOffset":3232,
			"target":34962
		},
		{
			"buffer":0,
			"byteLength":192,
			"byteOffset":3520,
			"target":34962
		},
		{
			"buffer":0,
			"byteLength":128,
			"byteOffset":3712,
			"target":34962
		},
		{
			"buffer":0,
			"byteLength":192,
			"byteOffset":3840,
			"target":34962
		},
		{
			"buffer":0,
			"byteLength":288,
			"byteOffset":4032,
			"target":34962
		},
		{
			"buffer":0,
			"byteLength":192,
			"byteOffset":4320,
			"target":34962
		},
		{
			"buffer":0,
			"byteLength":288,
			"byteOffset":4512,
			"target":34962
		},
		{
			"buffer":0,
			"byteLength":192,
			"byteOffset":4800,
			"target":34962
		},
		{
			"buffer":0,
			"byteLength":128,
			"byteOffset":4992,
			"target":34962
		},
		{
			"buffer":0,
			"byteLength":192,
			"byteOffset":5120,
			"target":34962
		},
		{
			"buffer":0,
			"byteLength":288,
			"byteOffset":5312,
			"target":34962
		},
		{
			"buffer":0,
			"byteLength":192,
			"byteOffset":5600,
			"target":34962
		},
		{
			"buffer":0,
			"byteLength":288,
			"byteOffset":5792,
			"target":34962
		},
		{
			"buffer":0,
			"byteLength":192,
			"byteOffset":6080,
			"target":34962
		},
		{
			"buffer":0,
			"byteLength":128,
			"byteOffset":6272,
			"target":34962
		},
		{
			"buffer":0,
			"byteLength":192,
			"byteOffset":6400,
			"target":34962
		},
		{
			"buffer":0,
			"byteLength":288,
			"byteOffset":6592,
			"target":34962
		},
		{
			"buffer":0,
			"byteLength":192,
			"byteOffset":6880,
			"target":34962
		},
		{
			"buffer":0,
			"byteLength":288,
			"byteOffset":7072,
			"target":34962
		},
		{
			"buffer":0,
			"byteLength":192,
			"byteOffset":7360,
			"target":34962
		},
		{
			"buffer":0,
			"byteLength":128,
			"byteOffset":7552,
			"target":34962
		},
		{
			"buffer":0,
			"byteLength":192,
			"byteOffset":7680,
			"target":34962
		},
		{
			"buffer":0,
			"byteLength":288,
			"byteOffset":7872,
			"target":34962
		},
		{
			"buffer":0,
			"byteLength":192,
			"byteOffset":8160,
			"target":34962
		},
		{
			"buffer":0,
			"byteLength":288,
			"byteOffset":8352,
			"target":34962
		},
		{
			"buffer":0,
			"byteLength":192,
			"byteOffset":8640,
			"target":34962
		},
		{
			"buffer":0,
			"byteLength":128,
			"byteOffset":8832,
			"target":34962
		},
		{
			"buffer":0,
			"byteLength":192,
			"byteOffset":8960,
			"target":34962
		},
		{
			"buffer":0,
			"byteLength":288,
			"byteOffset":9152,
			"target":34962
		},
		{
			"buffer":0,
			"byteLength":192,
			"byteOffset":9440,
			"target":34962
		},
		{
			"buffer":0,
			"byteLength":288,
			"byteOffset":9632,
			"target":34962
		},
		{
			"buffer":0,
			"byteLength":192,
			"byteOffset":9920,
			"target":34962
		},
		{
			"buffer":0,
			"byteLength":128,
			"byteOffset":10112,
			"target":34962
		},
		{
			"buffer":0,
			"byteLength":192,
			"byteOffset":10240,
			"target":34962
		},
		{
			"buffer":0,
			"byteLength":288,
			"byteOffset":10432,
			"target":34962
		},
		{
			"buffer":0,
			"byteLength":192,
			"byteOffset":10720,
			"target":34962
		},
		{
			"buffer":0,
			"byteLength":288,
			"byteOffset":10912,
			"target":34962
		},
		{
			"buffer":0,
			"byteLength":72,
			"byteOffset":11200,
			"target":34963
		},
		{
			"buffer":0,
			"byteLength":192,
			"byteOffset":11272,
			"target":34962
		},
		{
			"buffer":0,
			"byteLength":128,
			"byteOffset":11464,
			"target":34962
		},
		{
			"buffer":0,
			"byteLength":192,
			"byteOffset":11592,
			"target":34962
		},
		{
			"buffer":0,
			"byteLength":288,
			"byteOffset":11784,
			"target":34962
		},
		{
			"buffer":0,
			"byteLength":192,
			"byteOffset":12072,
			"target":34962
		},
		{
			"buffer":0,
			"byteLength":288,
			"byteOffset":12264,
			"target":34962
		},
		{
			"buffer":0,
			"byteLength":192,
			"byteOffset":12552,
			"target":34962
		},
		{
			"buffer":0,
			"byteLength":128,
			"byteOffset":12744,
			"target":34962
		},
		{
			"buffer":0,
			"byteLength":192,
			"byteOffset":12872,
			"target":34962
		},
		{
			"buffer":0,
			"byteLength":3072,
			"byteOffset":13064,
			"target":34962
		},
		{
			"buffer":0,
			"byteLength":2048,
			"byteOffset":16136,
			"target":34962
		},
		{
			"buffer":0,
			"byteLength":3072,
			"byteOffset":18184,
			"target":34962
		},
		{
			"buffer":0,
			"byteLength":996,
			"byteOffset":21256,
			"target":34963
		},
		{
			"buffer":0,
			"byteLength":288,
			"byteOffset":22252,
			"target":34962
		},
		{
			"buffer":0,
			"byteLength":192,
			"byteOffset":22540,
			"target":34962
		},
		{
			"buffer":0,
			"byteLength":288,
			"byteOffset":22732,
			"target":34962
		},
		{
			"buffer":0,
			"byteLength":72,
			"byteOffset":23020,
			"target":34963
		},
		{
			"buffer":0,
			"byteLength":288,
			"byteOffset":23092,
			"target":34962
		},
		{
			"buffer":0,
			"byteLength":192,
			"byteOffset":23380,
			"target":34962
		},
		{
			"buffer":0,
			"byteLength":288,
			"byteOffset":23572,
			"target":34962
		},
		{
			"buffer":0,
			"byteLength":72,
			"byteOffset":23860,
			"target":34963
		}
	],
	"samplers":[
		{
			"magFilter":9729,
			"minFilter":9987
		}
	],
	"buffers":[
		{
			"byteLength":23932,
			"uri":"Stage_ver2.bin"
		}
	]
}
