{
	"asset":{
		"generator":"Khronos glTF Blender I/O v3.5.30",
		"version":"2.0"
	},
	"extensionsUsed":[
		"KHR_materials_specular",
		"KHR_materials_ior"
	],
	"scene":0,
	"scenes":[
		{
			"name":"Scene",
			"nodes":[
				0,
				1,
				2,
				3,
				4,
				5,
				6,
				7,
				8,
				9
			]
		}
	],
	"nodes":[
		{
			"mesh":0,
			"name":"\u5e73\u9762"
		},
		{
			"mesh":1,
			"name":"\u7acb\u65b9\u4f53"
		},
		{
			"mesh":2,
			"name":"\u7acb\u65b9\u4f53.001"
		},
		{
			"mesh":3,
			"name":"\u7acb\u65b9\u4f53.002"
		},
		{
			"mesh":4,
			"name":"\u7acb\u65b9\u4f53.003"
		},
		{
			"mesh":5,
			"name":"\u5e73\u9762.001"
		},
		{
			"mesh":6,
			"name":"\u5e73\u9762.002"
		},
		{
			"mesh":7,
			"name":"\u5e73\u9762.003"
		},
		{
			"mesh":8,
			"name":"\u5e73\u9762.004"
		},
		{
			"mesh":9,
			"name":"\u5e73\u9762.005",
			"scale":[
				2.549999952316284,
				0.4285725951194763,
				1
			],
			"translation":[
				0,
				0.8671450018882751,
				-13.90999984741211
			]
		}
	],
	"materials":[
		{
			"doubleSided":true,
			"name":"floor",
			"normalTexture":{
				"index":0
			},
			"pbrMetallicRoughness":{
				"baseColorTexture":{
					"index":1
				},
				"metallicFactor":0,
				"roughnessFactor":0.5
			}
		},
		{
			"doubleSided":true,
			"extensions":{
				"KHR_materials_specular":{
					"specularColorTexture":{
						"index":2
					}
				},
				"KHR_materials_ior":{
					"ior":1.4500000476837158
				}
			},
			"name":"Wall.001",
			"normalTexture":{
				"index":3
			},
			"pbrMetallicRoughness":{
				"baseColorTexture":{
					"index":4
				},
				"metallicFactor":0
			}
		},
		{
			"doubleSided":true,
			"extensions":{
				"KHR_materials_specular":{
					"specularColorFactor":[
						0,
						0,
						0
					]
				},
				"KHR_materials_ior":{
					"ior":1.4500000476837158
				}
			},
			"name":"Wall_Under",
			"normalTexture":{
				"index":5
			},
			"pbrMetallicRoughness":{
				"baseColorTexture":{
					"index":6
				},
				"metallicFactor":0,
				"metallicRoughnessTexture":{
					"index":7
				}
			}
		},
		{
			"doubleSided":true,
			"name":"Tile",
			"normalTexture":{
				"index":8
			},
			"pbrMetallicRoughness":{
				"baseColorTexture":{
					"index":9
				},
				"metallicFactor":0,
				"metallicRoughnessTexture":{
					"index":10
				}
			}
		}
	],
	"meshes":[
		{
			"name":"\u5e73\u9762",
			"primitives":[
				{
					"attributes":{
						"POSITION":0,
						"TEXCOORD_0":1,
						"NORMAL":2
					},
					"indices":3,
					"material":0
				}
			]
		},
		{
			"name":"\u7acb\u65b9\u4f53.001",
			"primitives":[
				{
					"attributes":{
						"POSITION":4,
						"TEXCOORD_0":5,
						"NORMAL":6
					},
					"indices":7,
					"material":1
				},
				{
					"attributes":{
						"POSITION":8,
						"TEXCOORD_0":9,
						"NORMAL":10
					},
					"indices":11,
					"material":2
				}
			]
		},
		{
			"name":"\u7acb\u65b9\u4f53.002",
			"primitives":[
				{
					"attributes":{
						"POSITION":12,
						"TEXCOORD_0":13,
						"NORMAL":14
					},
					"indices":15,
					"material":1
				},
				{
					"attributes":{
						"POSITION":16,
						"TEXCOORD_0":17,
						"NORMAL":18
					},
					"indices":11,
					"material":2
				}
			]
		},
		{
			"name":"\u7acb\u65b9\u4f53.003",
			"primitives":[
				{
					"attributes":{
						"POSITION":19,
						"TEXCOORD_0":20,
						"NORMAL":21
					},
					"indices":15,
					"material":1
				},
				{
					"attributes":{
						"POSITION":22,
						"TEXCOORD_0":23,
						"NORMAL":24
					},
					"indices":11,
					"material":2
				}
			]
		},
		{
			"name":"\u7acb\u65b9\u4f53.004",
			"primitives":[
				{
					"attributes":{
						"POSITION":25,
						"TEXCOORD_0":26,
						"NORMAL":27
					},
					"indices":28,
					"material":3
				}
			]
		},
		{
			"name":"\u5e73\u9762.006",
			"primitives":[
				{
					"attributes":{
						"POSITION":29,
						"TEXCOORD_0":30,
						"NORMAL":31
					},
					"indices":32,
					"material":1
				},
				{
					"attributes":{
						"POSITION":33,
						"TEXCOORD_0":34,
						"NORMAL":35
					},
					"indices":36,
					"material":2
				}
			]
		},
		{
			"name":"\u5e73\u9762.007",
			"primitives":[
				{
					"attributes":{
						"POSITION":37,
						"TEXCOORD_0":38,
						"NORMAL":39
					},
					"indices":32,
					"material":1
				},
				{
					"attributes":{
						"POSITION":40,
						"TEXCOORD_0":41,
						"NORMAL":42
					},
					"indices":36,
					"material":2
				}
			]
		},
		{
			"name":"\u5e73\u9762.008",
			"primitives":[
				{
					"attributes":{
						"POSITION":43,
						"TEXCOORD_0":44,
						"NORMAL":45
					},
					"indices":32,
					"material":1
				},
				{
					"attributes":{
						"POSITION":46,
						"TEXCOORD_0":47,
						"NORMAL":48
					},
					"indices":36,
					"material":2
				}
			]
		},
		{
			"name":"\u5e73\u9762.009",
			"primitives":[
				{
					"attributes":{
						"POSITION":49,
						"TEXCOORD_0":50,
						"NORMAL":51
					},
					"indices":32,
					"material":1
				},
				{
					"attributes":{
						"POSITION":52,
						"TEXCOORD_0":53,
						"NORMAL":54
					},
					"indices":36,
					"material":2
				}
			]
		},
		{
			"name":"\u5e73\u9762.004",
			"primitives":[
				{
					"attributes":{
						"POSITION":55,
						"TEXCOORD_0":56,
						"NORMAL":57
					},
					"indices":58,
					"material":2
				}
			]
		}
	],
	"textures":[
		{
			"sampler":0,
			"source":0
		},
		{
			"sampler":0,
			"source":1
		},
		{
			"sampler":0,
			"source":2
		},
		{
			"sampler":0,
			"source":3
		},
		{
			"sampler":0,
			"source":4
		},
		{
			"sampler":0,
			"source":5
		},
		{
			"sampler":0,
			"source":6
		},
		{
			"sampler":0,
			"source":7
		},
		{
			"sampler":0,
			"source":8
		},
		{
			"sampler":0,
			"source":9
		},
		{
			"sampler":0,
			"source":10
		}
	],
	"images":[
		{
			"mimeType":"image/png",
			"name":"laminate_floor_nor_gl_4k",
			"uri":"laminate_floor_nor_gl_4k.png"
		},
		{
			"mimeType":"image/png",
			"name":"laminate_floor_diff_4k",
			"uri":"laminate_floor_diff_4k.png"
		},
		{
			"mimeType":"image/png",
			"name":"Image",
			"uri":"Image.png"
		},
		{
			"mimeType":"image/png",
			"name":"white_concrete_Normal",
			"uri":"white_concrete_Normal.png"
		},
		{
			"mimeType":"image/png",
			"name":"white_concrete_Diffuse",
			"uri":"white_concrete_Diffuse.png"
		},
		{
			"mimeType":"image/png",
			"name":"Wood028_4K-PNG_NormalGL",
			"uri":"Wood028_4K-PNG_NormalGL.png"
		},
		{
			"mimeType":"image/png",
			"name":"Wood028_4K-PNG_Color",
			"uri":"Wood028_4K-PNG_Color.png"
		},
		{
			"mimeType":"image/png",
			"name":"Wood028_4K-PNG_Roughness",
			"uri":"Wood028_4K-PNG_Roughness.png"
		},
		{
			"mimeType":"image/png",
			"name":"Tiles105_4K-PNG_NormalGL",
			"uri":"Tiles105_4K-PNG_NormalGL.png"
		},
		{
			"mimeType":"image/png",
			"name":"Tiles105_4K-PNG_Color",
			"uri":"Tiles105_4K-PNG_Color.png"
		},
		{
			"mimeType":"image/png",
			"name":"Tiles105_4K-PNG_Roughness",
			"uri":"Tiles105_4K-PNG_Roughness.png"
		}
	],
	"accessors":[
		{
			"bufferView":0,
			"componentType":5126,
			"count":4,
			"max":[
				15,
				0,
				20
			],
			"min":[
				-15,
				0,
				-20
			],
			"type":"VEC3"
		},
		{
			"bufferView":1,
			"componentType":5126,
			"count":4,
			"type":"VEC2"
		},
		{
			"bufferView":2,
			"componentType":5126,
			"count":4,
			"type":"VEC3"
		},
		{
			"bufferView":3,
			"componentType":5123,
			"count":6,
			"type":"SCALAR"
		},
		{
			"bufferView":4,
			"componentType":5126,
			"count":24,
			"max":[
				7.5,
				6.989999771118164,
				0.125
			],
			"min":[
				-7.5,
				-0.009999999776482582,
				-0.125
			],
			"type":"VEC3"
		},
		{
			"bufferView":5,
			"componentType":5126,
			"count":24,
			"type":"VEC2"
		},
		{
			"bufferView":6,
			"componentType":5126,
			"count":24,
			"type":"VEC3"
		},
		{
			"bufferView":7,
			"componentType":5123,
			"count":36,
			"type":"SCALAR"
		},
		{
			"bufferView":8,
			"componentType":5126,
			"count":16,
			"max":[
				7.5,
				0.10199989378452301,
				0.125
			],
			"min":[
				-7.5,
				-0.009999999776482582,
				-0.125
			],
			"type":"VEC3"
		},
		{
			"bufferView":9,
			"componentType":5126,
			"count":16,
			"type":"VEC2"
		},
		{
			"bufferView":10,
			"componentType":5126,
			"count":16,
			"type":"VEC3"
		},
		{
			"bufferView":11,
			"componentType":5123,
			"count":24,
			"type":"SCALAR"
		},
		{
			"bufferView":12,
			"componentType":5126,
			"count":24,
			"max":[
				15,
				6.989998817443848,
				0.125
			],
			"min":[
				12,
				-0.009999999776482582,
				-0.125
			],
			"type":"VEC3"
		},
		{
			"bufferView":13,
			"componentType":5126,
			"count":24,
			"type":"VEC2"
		},
		{
			"bufferView":14,
			"componentType":5126,
			"count":24,
			"type":"VEC3"
		},
		{
			"bufferView":15,
			"componentType":5123,
			"count":36,
			"type":"SCALAR"
		},
		{
			"bufferView":16,
			"componentType":5126,
			"count":16,
			"max":[
				15,
				0.10199988633394241,
				0.125
			],
			"min":[
				12,
				-0.009999999776482582,
				-0.125
			],
			"type":"VEC3"
		},
		{
			"bufferView":17,
			"componentType":5126,
			"count":16,
			"type":"VEC2"
		},
		{
			"bufferView":18,
			"componentType":5126,
			"count":16,
			"type":"VEC3"
		},
		{
			"bufferView":19,
			"componentType":5126,
			"count":24,
			"max":[
				-12,
				6.989999771118164,
				0.125
			],
			"min":[
				-15,
				-0.009999999776482582,
				-0.125
			],
			"type":"VEC3"
		},
		{
			"bufferView":20,
			"componentType":5126,
			"count":24,
			"type":"VEC2"
		},
		{
			"bufferView":21,
			"componentType":5126,
			"count":24,
			"type":"VEC3"
		},
		{
			"bufferView":22,
			"componentType":5126,
			"count":16,
			"max":[
				-12,
				0.10199989378452301,
				0.125
			],
			"min":[
				-15,
				-0.009999999776482582,
				-0.125
			],
			"type":"VEC3"
		},
		{
			"bufferView":23,
			"componentType":5126,
			"count":16,
			"type":"VEC2"
		},
		{
			"bufferView":24,
			"componentType":5126,
			"count":16,
			"type":"VEC3"
		},
		{
			"bufferView":25,
			"componentType":5126,
			"count":24,
			"max":[
				2.549999952316284,
				0.7599999904632568,
				-14.90999984741211
			],
			"min":[
				-2.549999952316284,
				0.009999999776482582,
				-20.010000228881836
			],
			"type":"VEC3"
		},
		{
			"bufferView":26,
			"componentType":5126,
			"count":24,
			"type":"VEC2"
		},
		{
			"bufferView":27,
			"componentType":5126,
			"count":24,
			"type":"VEC3"
		},
		{
			"bufferView":28,
			"componentType":5123,
			"count":36,
			"type":"SCALAR"
		},
		{
			"bufferView":29,
			"componentType":5126,
			"count":4,
			"max":[
				-15,
				12.489999771118164,
				20
			],
			"min":[
				-15,
				0.1899998039007187,
				-20
			],
			"type":"VEC3"
		},
		{
			"bufferView":30,
			"componentType":5126,
			"count":4,
			"type":"VEC2"
		},
		{
			"bufferView":31,
			"componentType":5126,
			"count":4,
			"type":"VEC3"
		},
		{
			"bufferView":32,
			"componentType":5123,
			"count":6,
			"type":"SCALAR"
		},
		{
			"bufferView":33,
			"componentType":5126,
			"count":4,
			"max":[
				-15,
				0.1899998039007187,
				20
			],
			"min":[
				-15,
				-0.009999999776482582,
				-20
			],
			"type":"VEC3"
		},
		{
			"bufferView":34,
			"componentType":5126,
			"count":4,
			"type":"VEC2"
		},
		{
			"bufferView":35,
			"componentType":5126,
			"count":4,
			"type":"VEC3"
		},
		{
			"bufferView":36,
			"componentType":5123,
			"count":6,
			"type":"SCALAR"
		},
		{
			"bufferView":37,
			"componentType":5126,
			"count":4,
			"max":[
				15.000001907348633,
				12.489999771118164,
				20
			],
			"min":[
				14.999998092651367,
				0.18999998271465302,
				-20
			],
			"type":"VEC3"
		},
		{
			"bufferView":38,
			"componentType":5126,
			"count":4,
			"type":"VEC2"
		},
		{
			"bufferView":39,
			"componentType":5126,
			"count":4,
			"type":"VEC3"
		},
		{
			"bufferView":40,
			"componentType":5126,
			"count":4,
			"max":[
				15.000001907348633,
				0.18999998271465302,
				20
			],
			"min":[
				14.999999046325684,
				-0.009999999776482582,
				-20
			],
			"type":"VEC3"
		},
		{
			"bufferView":41,
			"componentType":5126,
			"count":4,
			"type":"VEC2"
		},
		{
			"bufferView":42,
			"componentType":5126,
			"count":4,
			"type":"VEC3"
		},
		{
			"bufferView":43,
			"componentType":5126,
			"count":4,
			"max":[
				15.000001907348633,
				12.49000072479248,
				-20
			],
			"min":[
				-15.000001907348633,
				0.18999885022640228,
				-20
			],
			"type":"VEC3"
		},
		{
			"bufferView":44,
			"componentType":5126,
			"count":4,
			"type":"VEC2"
		},
		{
			"bufferView":45,
			"componentType":5126,
			"count":4,
			"type":"VEC3"
		},
		{
			"bufferView":46,
			"componentType":5126,
			"count":4,
			"max":[
				15.000001907348633,
				0.1900007575750351,
				-20
			],
			"min":[
				-15.000001907348633,
				-0.010000953450798988,
				-20
			],
			"type":"VEC3"
		},
		{
			"bufferView":47,
			"componentType":5126,
			"count":4,
			"type":"VEC2"
		},
		{
			"bufferView":48,
			"componentType":5126,
			"count":4,
			"type":"VEC3"
		},
		{
			"bufferView":49,
			"componentType":5126,
			"count":4,
			"max":[
				15.000001907348633,
				12.49000072479248,
				20.0000057220459
			],
			"min":[
				-15.000001907348633,
				0.1899990439414978,
				19.9999942779541
			],
			"type":"VEC3"
		},
		{
			"bufferView":50,
			"componentType":5126,
			"count":4,
			"type":"VEC2"
		},
		{
			"bufferView":51,
			"componentType":5126,
			"count":4,
			"type":"VEC3"
		},
		{
			"bufferView":52,
			"componentType":5126,
			"count":4,
			"max":[
				15.000001907348633,
				0.19000095129013062,
				20.0000057220459
			],
			"min":[
				-15.000001907348633,
				-0.010000953450798988,
				19.9999942779541
			],
			"type":"VEC3"
		},
		{
			"bufferView":53,
			"componentType":5126,
			"count":4,
			"type":"VEC2"
		},
		{
			"bufferView":54,
			"componentType":5126,
			"count":4,
			"type":"VEC3"
		},
		{
			"bufferView":55,
			"componentType":5126,
			"count":256,
			"max":[
				1.686274528503418,
				-0.25,
				0.75
			],
			"min":[
				-1.686274528503418,
				-2.0000033378601074,
				-6.100001335144043
			],
			"type":"VEC3"
		},
		{
			"bufferView":56,
			"componentType":5126,
			"count":256,
			"type":"VEC2"
		},
		{
			"bufferView":57,
			"componentType":5126,
			"count":256,
			"type":"VEC3"
		},
		{
			"bufferView":58,
			"componentType":5123,
			"count":498,
			"type":"SCALAR"
		}
	],
	"bufferViews":[
		{
			"buffer":0,
			"byteLength":48,
			"byteOffset":0,
			"target":34962
		},
		{
			"buffer":0,
			"byteLength":32,
			"byteOffset":48,
			"target":34962
		},
		{
			"buffer":0,
			"byteLength":48,
			"byteOffset":80,
			"target":34962
		},
		{
			"buffer":0,
			"byteLength":12,
			"byteOffset":128,
			"target":34963
		},
		{
			"buffer":0,
			"byteLength":288,
			"byteOffset":140,
			"target":34962
		},
		{
			"buffer":0,
			"byteLength":192,
			"byteOffset":428,
			"target":34962
		},
		{
			"buffer":0,
			"byteLength":288,
			"byteOffset":620,
			"target":34962
		},
		{
			"buffer":0,
			"byteLength":72,
			"byteOffset":908,
			"target":34963
		},
		{
			"buffer":0,
			"byteLength":192,
			"byteOffset":980,
			"target":34962
		},
		{
			"buffer":0,
			"byteLength":128,
			"byteOffset":1172,
			"target":34962
		},
		{
			"buffer":0,
			"byteLength":192,
			"byteOffset":1300,
			"target":34962
		},
		{
			"buffer":0,
			"byteLength":48,
			"byteOffset":1492,
			"target":34963
		},
		{
			"buffer":0,
			"byteLength":288,
			"byteOffset":1540,
			"target":34962
		},
		{
			"buffer":0,
			"byteLength":192,
			"byteOffset":1828,
			"target":34962
		},
		{
			"buffer":0,
			"byteLength":288,
			"byteOffset":2020,
			"target":34962
		},
		{
			"buffer":0,
			"byteLength":72,
			"byteOffset":2308,
			"target":34963
		},
		{
			"buffer":0,
			"byteLength":192,
			"byteOffset":2380,
			"target":34962
		},
		{
			"buffer":0,
			"byteLength":128,
			"byteOffset":2572,
			"target":34962
		},
		{
			"buffer":0,
			"byteLength":192,
			"byteOffset":2700,
			"target":34962
		},
		{
			"buffer":0,
			"byteLength":288,
			"byteOffset":2892,
			"target":34962
		},
		{
			"buffer":0,
			"byteLength":192,
			"byteOffset":3180,
			"target":34962
		},
		{
			"buffer":0,
			"byteLength":288,
			"byteOffset":3372,
			"target":34962
		},
		{
			"buffer":0,
			"byteLength":192,
			"byteOffset":3660,
			"target":34962
		},
		{
			"buffer":0,
			"byteLength":128,
			"byteOffset":3852,
			"target":34962
		},
		{
			"buffer":0,
			"byteLength":192,
			"byteOffset":3980,
			"target":34962
		},
		{
			"buffer":0,
			"byteLength":288,
			"byteOffset":4172,
			"target":34962
		},
		{
			"buffer":0,
			"byteLength":192,
			"byteOffset":4460,
			"target":34962
		},
		{
			"buffer":0,
			"byteLength":288,
			"byteOffset":4652,
			"target":34962
		},
		{
			"buffer":0,
			"byteLength":72,
			"byteOffset":4940,
			"target":34963
		},
		{
			"buffer":0,
			"byteLength":48,
			"byteOffset":5012,
			"target":34962
		},
		{
			"buffer":0,
			"byteLength":32,
			"byteOffset":5060,
			"target":34962
		},
		{
			"buffer":0,
			"byteLength":48,
			"byteOffset":5092,
			"target":34962
		},
		{
			"buffer":0,
			"byteLength":12,
			"byteOffset":5140,
			"target":34963
		},
		{
			"buffer":0,
			"byteLength":48,
			"byteOffset":5152,
			"target":34962
		},
		{
			"buffer":0,
			"byteLength":32,
			"byteOffset":5200,
			"target":34962
		},
		{
			"buffer":0,
			"byteLength":48,
			"byteOffset":5232,
			"target":34962
		},
		{
			"buffer":0,
			"byteLength":12,
			"byteOffset":5280,
			"target":34963
		},
		{
			"buffer":0,
			"byteLength":48,
			"byteOffset":5292,
			"target":34962
		},
		{
			"buffer":0,
			"byteLength":32,
			"byteOffset":5340,
			"target":34962
		},
		{
			"buffer":0,
			"byteLength":48,
			"byteOffset":5372,
			"target":34962
		},
		{
			"buffer":0,
			"byteLength":48,
			"byteOffset":5420,
			"target":34962
		},
		{
			"buffer":0,
			"byteLength":32,
			"byteOffset":5468,
			"target":34962
		},
		{
			"buffer":0,
			"byteLength":48,
			"byteOffset":5500,
			"target":34962
		},
		{
			"buffer":0,
			"byteLength":48,
			"byteOffset":5548,
			"target":34962
		},
		{
			"buffer":0,
			"byteLength":32,
			"byteOffset":5596,
			"target":34962
		},
		{
			"buffer":0,
			"byteLength":48,
			"byteOffset":5628,
			"target":34962
		},
		{
			"buffer":0,
			"byteLength":48,
			"byteOffset":5676,
			"target":34962
		},
		{
			"buffer":0,
			"byteLength":32,
			"byteOffset":5724,
			"target":34962
		},
		{
			"buffer":0,
			"byteLength":48,
			"byteOffset":5756,
			"target":34962
		},
		{
			"buffer":0,
			"byteLength":48,
			"byteOffset":5804,
			"target":34962
		},
		{
			"buffer":0,
			"byteLength":32,
			"byteOffset":5852,
			"target":34962
		},
		{
			"buffer":0,
			"byteLength":48,
			"byteOffset":5884,
			"target":34962
		},
		{
			"buffer":0,
			"byteLength":48,
			"byteOffset":5932,
			"target":34962
		},
		{
			"buffer":0,
			"byteLength":32,
			"byteOffset":5980,
			"target":34962
		},
		{
			"buffer":0,
			"byteLength":48,
			"byteOffset":6012,
			"target":34962
		},
		{
			"buffer":0,
			"byteLength":3072,
			"byteOffset":6060,
			"target":34962
		},
		{
			"buffer":0,
			"byteLength":2048,
			"byteOffset":9132,
			"target":34962
		},
		{
			"buffer":0,
			"byteLength":3072,
			"byteOffset":11180,
			"target":34962
		},
		{
			"buffer":0,
			"byteLength":996,
			"byteOffset":14252,
			"target":34963
		}
	],
	"samplers":[
		{
			"magFilter":9729,
			"minFilter":9987
		}
	],
	"buffers":[
		{
			"byteLength":15248,
			"uri":"Stage_ver2.bin"
		}
	]
}
