{
	"asset":{
		"generator":"Khronos glTF Blender I/O v3.5.30",
		"version":"2.0"
	},
	"scene":0,
	"scenes":[
		{
			"name":"Scene",
			"nodes":[
				0,
				1
			]
		}
	],
	"nodes":[
		{
			"mesh":0,
			"name":"Cube"
		},
		{
			"mesh":1,
			"name":"Cube.001"
		}
	],
	"materials":[
		{
			"alphaMode":"BLEND",
			"doubleSided":true,
			"name":"Material.002",
			"pbrMetallicRoughness":{
				"baseColorTexture":{
					"index":0
				},
				"metallicFactor":0,
				"roughnessFactor":0.8999999761581421
			}
		}
	],
	"meshes":[
		{
			"name":"Cube.001",
			"primitives":[
				{
					"attributes":{
						"POSITION":0,
						"TEXCOORD_0":1,
						"NORMAL":2
					},
					"indices":3,
					"material":0
				}
			]
		},
		{
			"name":"Cube.002",
			"primitives":[
				{
					"attributes":{
						"POSITION":4,
						"TEXCOORD_0":5,
						"NORMAL":6
					},
					"indices":3,
					"material":0
				}
			]
		}
	],
	"textures":[
		{
			"sampler":0,
			"source":0
		}
	],
	"images":[
		{
			"mimeType":"image/png",
			"name":"bookshelf",
			"uri":"bookshelf.png"
		}
	],
	"accessors":[
		{
			"bufferView":0,
			"componentType":5126,
			"count":1083,
			"max":[
				0.7822054624557495,
				2.369184970855713,
				0.25
			],
			"min":[
				-0.7822050452232361,
				0.0009140472393482924,
				-0.2530367076396942
			],
			"type":"VEC3"
		},
		{
			"bufferView":1,
			"componentType":5126,
			"count":1083,
			"type":"VEC2"
		},
		{
			"bufferView":2,
			"componentType":5126,
			"count":1083,
			"type":"VEC3"
		},
		{
			"bufferView":3,
			"componentType":5123,
			"count":2502,
			"type":"SCALAR"
		},
		{
			"bufferView":4,
			"componentType":5126,
			"count":1083,
			"max":[
				0.7822054624557495,
				2.369184970855713,
				0.25
			],
			"min":[
				-0.7822050452232361,
				0.0009140472393482924,
				-0.2530367076396942
			],
			"type":"VEC3"
		},
		{
			"bufferView":5,
			"componentType":5126,
			"count":1083,
			"type":"VEC2"
		},
		{
			"bufferView":6,
			"componentType":5126,
			"count":1083,
			"type":"VEC3"
		}
	],
	"bufferViews":[
		{
			"buffer":0,
			"byteLength":12996,
			"byteOffset":0,
			"target":34962
		},
		{
			"buffer":0,
			"byteLength":8664,
			"byteOffset":12996,
			"target":34962
		},
		{
			"buffer":0,
			"byteLength":12996,
			"byteOffset":21660,
			"target":34962
		},
		{
			"buffer":0,
			"byteLength":5004,
			"byteOffset":34656,
			"target":34963
		},
		{
			"buffer":0,
			"byteLength":12996,
			"byteOffset":39660,
			"target":34962
		},
		{
			"buffer":0,
			"byteLength":8664,
			"byteOffset":52656,
			"target":34962
		},
		{
			"buffer":0,
			"byteLength":12996,
			"byteOffset":61320,
			"target":34962
		}
	],
	"samplers":[
		{
			"magFilter":9729,
			"minFilter":9987
		}
	],
	"buffers":[
		{
			"byteLength":74316,
			"uri":"BookShelf.bin"
		}
	]
}
