{
	"asset":{
		"generator":"Khronos glTF Blender I/O v3.5.30",
		"version":"2.0"
	},
	"extensionsUsed":[
		"KHR_materials_specular",
		"KHR_materials_ior"
	],
	"scene":0,
	"scenes":[
		{
			"name":"Scene",
			"nodes":[
				0,
				1
			]
		}
	],
	"nodes":[
		{
			"mesh":0,
			"name":"polySurface147"
		},
		{
			"mesh":1,
			"name":"COL",
			"rotation":[
				-0.156061589717865,
				0.0007426427910104394,
				0.03353762999176979,
				0.9871776103973389
			],
			"scale":[
				1.0004810094833374,
				1.024189829826355,
				5.0529465675354
			],
			"translation":[
				0,
				3.380038261413574,
				0
			]
		}
	],
	"materials":[
		{
			"doubleSided":true,
			"extensions":{
				"KHR_materials_specular":{
					"specularColorFactor":[
						0.237135764977738,
						0.237135764977738,
						0.237135764977738
					]
				},
				"KHR_materials_ior":{
					"ior":1.4500000476837158
				}
			},
			"name":"aiStandardSurface1",
			"normalTexture":{
				"index":0
			},
			"pbrMetallicRoughness":{
				"baseColorTexture":{
					"index":1
				},
				"metallicFactor":0
			}
		}
	],
	"meshes":[
		{
			"name":"\u30e1\u30c3\u30b7\u30e5",
			"primitives":[
				{
					"attributes":{
						"POSITION":0,
						"TEXCOORD_0":1,
						"NORMAL":2
					},
					"indices":3,
					"material":0
				}
			]
		},
		{
			"name":"\u7403",
			"primitives":[
				{
					"attributes":{
						"POSITION":4,
						"TEXCOORD_0":5,
						"NORMAL":6
					},
					"indices":7
				}
			]
		}
	],
	"textures":[
		{
			"sampler":0,
			"source":0
		},
		{
			"sampler":0,
			"source":1
		}
	],
	"images":[
		{
			"mimeType":"image/png",
			"name":"Normal",
			"uri":"Normal.png"
		},
		{
			"mimeType":"image/png",
			"name":"Diffuse",
			"uri":"Diffuse.png"
		}
	],
	"accessors":[
		{
			"bufferView":0,
			"componentType":5126,
			"count":16807,
			"max":[
				1.3062466382980347,
				4.967888355255127,
				4.584418773651123
			],
			"min":[
				-2.337801694869995,
				-0.03720775619149208,
				-3.63736891746521
			],
			"type":"VEC3"
		},
		{
			"bufferView":1,
			"componentType":5126,
			"count":16807,
			"type":"VEC2"
		},
		{
			"bufferView":2,
			"componentType":5126,
			"count":16807,
			"type":"VEC3"
		},
		{
			"bufferView":3,
			"componentType":5123,
			"count":34734,
			"type":"SCALAR"
		},
		{
			"bufferView":4,
			"componentType":5126,
			"count":1984,
			"max":[
				1.4476532936096191,
				0.9807852506637573,
				0.9999993443489075
			],
			"min":[
				-2.670670747756958,
				-3.3967580795288086,
				-1
			],
			"type":"VEC3"
		},
		{
			"bufferView":5,
			"componentType":5126,
			"count":1984,
			"type":"VEC2"
		},
		{
			"bufferView":6,
			"componentType":5126,
			"count":1984,
			"type":"VEC3"
		},
		{
			"bufferView":7,
			"componentType":5123,
			"count":2880,
			"type":"SCALAR"
		}
	],
	"bufferViews":[
		{
			"buffer":0,
			"byteLength":201684,
			"byteOffset":0,
			"target":34962
		},
		{
			"buffer":0,
			"byteLength":134456,
			"byteOffset":201684,
			"target":34962
		},
		{
			"buffer":0,
			"byteLength":201684,
			"byteOffset":336140,
			"target":34962
		},
		{
			"buffer":0,
			"byteLength":69468,
			"byteOffset":537824,
			"target":34963
		},
		{
			"buffer":0,
			"byteLength":23808,
			"byteOffset":607292,
			"target":34962
		},
		{
			"buffer":0,
			"byteLength":15872,
			"byteOffset":631100,
			"target":34962
		},
		{
			"buffer":0,
			"byteLength":23808,
			"byteOffset":646972,
			"target":34962
		},
		{
			"buffer":0,
			"byteLength":5760,
			"byteOffset":670780,
			"target":34963
		}
	],
	"samplers":[
		{
			"magFilter":9729,
			"minFilter":9987
		}
	],
	"buffers":[
		{
			"byteLength":676540,
			"uri":"Trex.bin"
		}
	]
}
