{
	"asset":{
		"generator":"Khronos glTF Blender I/O v3.5.30",
		"version":"2.0"
	},
	"extensionsUsed":[
		"KHR_materials_specular",
		"KHR_materials_ior"
	],
	"scene":0,
	"scenes":[
		{
			"name":"Scene",
			"nodes":[
				0
			]
		}
	],
	"nodes":[
		{
			"mesh":0,
			"name":"polySurface147"
		}
	],
	"materials":[
		{
			"doubleSided":true,
			"extensions":{
				"KHR_materials_specular":{
					"specularColorFactor":[
						0.237135764977738,
						0.237135764977738,
						0.237135764977738
					]
				},
				"KHR_materials_ior":{
					"ior":1.4500000476837158
				}
			},
			"name":"aiStandardSurface1",
			"normalTexture":{
				"index":0
			},
			"pbrMetallicRoughness":{
				"baseColorTexture":{
					"index":1
				},
				"metallicFactor":0
			}
		}
	],
	"meshes":[
		{
			"name":"\u30e1\u30c3\u30b7\u30e5",
			"primitives":[
				{
					"attributes":{
						"POSITION":0,
						"TEXCOORD_0":1,
						"NORMAL":2
					},
					"indices":3,
					"material":0
				}
			]
		}
	],
	"textures":[
		{
			"sampler":0,
			"source":0
		},
		{
			"sampler":0,
			"source":1
		}
	],
	"images":[
		{
			"mimeType":"image/png",
			"name":"Normal",
			"uri":"Normal.png"
		},
		{
			"mimeType":"image/png",
			"name":"Diffuse",
			"uri":"Diffuse.png"
		}
	],
	"accessors":[
		{
			"bufferView":0,
			"componentType":5126,
			"count":16807,
			"max":[
				1.3062466382980347,
				4.967888355255127,
				4.584418773651123
			],
			"min":[
				-2.337801694869995,
				-0.03720775619149208,
				-3.63736891746521
			],
			"type":"VEC3"
		},
		{
			"bufferView":1,
			"componentType":5126,
			"count":16807,
			"type":"VEC2"
		},
		{
			"bufferView":2,
			"componentType":5126,
			"count":16807,
			"type":"VEC3"
		},
		{
			"bufferView":3,
			"componentType":5123,
			"count":34734,
			"type":"SCALAR"
		}
	],
	"bufferViews":[
		{
			"buffer":0,
			"byteLength":201684,
			"byteOffset":0,
			"target":34962
		},
		{
			"buffer":0,
			"byteLength":134456,
			"byteOffset":201684,
			"target":34962
		},
		{
			"buffer":0,
			"byteLength":201684,
			"byteOffset":336140,
			"target":34962
		},
		{
			"buffer":0,
			"byteLength":69468,
			"byteOffset":537824,
			"target":34963
		}
	],
	"samplers":[
		{
			"magFilter":9729,
			"minFilter":9987
		}
	],
	"buffers":[
		{
			"byteLength":607292,
			"uri":"Trex.bin"
		}
	]
}
