{
	"asset":{
		"generator":"Khronos glTF Blender I/O v3.5.30",
		"version":"2.0"
	},
	"scene":0,
	"scenes":[
		{
			"name":"Scene",
			"nodes":[
				0,
				1,
				2
			]
		}
	],
	"nodes":[
		{
			"mesh":0,
			"name":"Bamboo_3",
			"scale":[
				1.5,
				1.5,
				1.5
			]
		},
		{
			"mesh":1,
			"name":"Bamboo_3.001",
			"scale":[
				1.5,
				1.5,
				1.5
			]
		},
		{
			"mesh":2,
			"name":"COL",
			"scale":[
				1,
				5.149641990661621,
				1
			]
		}
	],
	"materials":[
		{
			"doubleSided":true,
			"name":"Bamboo_1",
			"pbrMetallicRoughness":{
				"baseColorTexture":{
					"index":0
				},
				"metallicFactor":0,
				"roughnessFactor":0.5
			}
		}
	],
	"meshes":[
		{
			"name":"Bamboo_3_Cylinder.015",
			"primitives":[
				{
					"attributes":{
						"POSITION":0,
						"TEXCOORD_0":1,
						"NORMAL":2
					},
					"indices":3,
					"material":0
				}
			]
		},
		{
			"name":"Bamboo_3_Cylinder.001",
			"primitives":[
				{
					"attributes":{
						"POSITION":4,
						"TEXCOORD_0":5,
						"NORMAL":6
					},
					"indices":3,
					"material":0
				}
			]
		},
		{
			"name":"\u7acb\u65b9\u4f53",
			"primitives":[
				{
					"attributes":{
						"POSITION":7,
						"TEXCOORD_0":8,
						"NORMAL":9
					},
					"indices":10
				}
			]
		}
	],
	"textures":[
		{
			"sampler":0,
			"source":0
		}
	],
	"images":[
		{
			"mimeType":"image/png",
			"name":"BaseColor",
			"uri":"BaseColor.png"
		}
	],
	"accessors":[
		{
			"bufferView":0,
			"componentType":5126,
			"count":437,
			"max":[
				1.9045060873031616,
				7.704411029815674,
				2.058582305908203
			],
			"min":[
				-1.2353006601333618,
				-7.450580596923828e-08,
				-2.043186664581299
			],
			"type":"VEC3"
		},
		{
			"bufferView":1,
			"componentType":5126,
			"count":437,
			"type":"VEC2"
		},
		{
			"bufferView":2,
			"componentType":5126,
			"count":437,
			"type":"VEC3"
		},
		{
			"bufferView":3,
			"componentType":5123,
			"count":1050,
			"type":"SCALAR"
		},
		{
			"bufferView":4,
			"componentType":5126,
			"count":437,
			"max":[
				1.737973928451538,
				6.163528919219971,
				1.6401190757751465
			],
			"min":[
				-2.0015389919281006,
				-5.960464477539063e-08,
				-2.129751205444336
			],
			"type":"VEC3"
		},
		{
			"bufferView":5,
			"componentType":5126,
			"count":437,
			"type":"VEC2"
		},
		{
			"bufferView":6,
			"componentType":5126,
			"count":437,
			"type":"VEC3"
		},
		{
			"bufferView":7,
			"componentType":5126,
			"count":24,
			"max":[
				1.7144829034805298,
				2,
				1.7144829034805298
			],
			"min":[
				-1.7144829034805298,
				0,
				-1.7144829034805298
			],
			"type":"VEC3"
		},
		{
			"bufferView":8,
			"componentType":5126,
			"count":24,
			"type":"VEC2"
		},
		{
			"bufferView":9,
			"componentType":5126,
			"count":24,
			"type":"VEC3"
		},
		{
			"bufferView":10,
			"componentType":5123,
			"count":36,
			"type":"SCALAR"
		}
	],
	"bufferViews":[
		{
			"buffer":0,
			"byteLength":5244,
			"byteOffset":0,
			"target":34962
		},
		{
			"buffer":0,
			"byteLength":3496,
			"byteOffset":5244,
			"target":34962
		},
		{
			"buffer":0,
			"byteLength":5244,
			"byteOffset":8740,
			"target":34962
		},
		{
			"buffer":0,
			"byteLength":2100,
			"byteOffset":13984,
			"target":34963
		},
		{
			"buffer":0,
			"byteLength":5244,
			"byteOffset":16084,
			"target":34962
		},
		{
			"buffer":0,
			"byteLength":3496,
			"byteOffset":21328,
			"target":34962
		},
		{
			"buffer":0,
			"byteLength":5244,
			"byteOffset":24824,
			"target":34962
		},
		{
			"buffer":0,
			"byteLength":288,
			"byteOffset":30068,
			"target":34962
		},
		{
			"buffer":0,
			"byteLength":192,
			"byteOffset":30356,
			"target":34962
		},
		{
			"buffer":0,
			"byteLength":288,
			"byteOffset":30548,
			"target":34962
		},
		{
			"buffer":0,
			"byteLength":72,
			"byteOffset":30836,
			"target":34963
		}
	],
	"samplers":[
		{
			"magFilter":9729,
			"minFilter":9987
		}
	],
	"buffers":[
		{
			"byteLength":30908,
			"uri":"Bamboo_03.bin"
		}
	]
}
