{
	"asset":{
		"generator":"Khronos glTF Blender I/O v3.5.30",
		"version":"2.0"
	},
	"extensionsUsed":[
		"KHR_materials_specular",
		"KHR_materials_ior"
	],
	"scene":0,
	"scenes":[
		{
			"name":"Scene",
			"nodes":[
				3,
				4
			]
		}
	],
	"nodes":[
		{
			"mesh":0,
			"name":"Cube"
		},
		{
			"mesh":1,
			"name":"Cube.001"
		},
		{
			"mesh":2,
			"name":"Cube.002"
		},
		{
			"children":[
				0,
				1,
				2
			],
			"mesh":3,
			"name":"Cube.003",
			"scale":[
				3,
				3,
				3
			]
		},
		{
			"mesh":4,
			"name":"COL",
			"scale":[
				2.8877999782562256,
				0.6784300208091736,
				0.75
			]
		}
	],
	"materials":[
		{
			"doubleSided":true,
			"extensions":{
				"KHR_materials_specular":{
					"specularColorFactor":[
						0.474271529955476,
						0.474271529955476,
						0.474271529955476
					]
				},
				"KHR_materials_ior":{
					"ior":1.4500000476837158
				}
			},
			"name":"Material.001",
			"normalTexture":{
				"index":0
			},
			"pbrMetallicRoughness":{
				"baseColorTexture":{
					"index":1
				},
				"metallicRoughnessTexture":{
					"index":2
				}
			}
		}
	],
	"meshes":[
		{
			"name":"Cube.004",
			"primitives":[
				{
					"attributes":{
						"POSITION":0,
						"TEXCOORD_0":1,
						"NORMAL":2
					},
					"indices":3,
					"material":0
				}
			]
		},
		{
			"name":"Cube.005",
			"primitives":[
				{
					"attributes":{
						"POSITION":4,
						"TEXCOORD_0":5,
						"NORMAL":6
					},
					"indices":7,
					"material":0
				}
			]
		},
		{
			"name":"Cube.006",
			"primitives":[
				{
					"attributes":{
						"POSITION":8,
						"TEXCOORD_0":9,
						"NORMAL":10
					},
					"indices":11,
					"material":0
				}
			]
		},
		{
			"name":"Cube.007",
			"primitives":[
				{
					"attributes":{
						"POSITION":12,
						"TEXCOORD_0":13,
						"NORMAL":14
					},
					"indices":15,
					"material":0
				}
			]
		},
		{
			"name":"\u7acb\u65b9\u4f53",
			"primitives":[
				{
					"attributes":{
						"POSITION":16,
						"TEXCOORD_0":17,
						"NORMAL":18
					},
					"indices":19
				}
			]
		}
	],
	"textures":[
		{
			"sampler":0,
			"source":0
		},
		{
			"sampler":0,
			"source":1
		},
		{
			"sampler":0,
			"source":2
		}
	],
	"images":[
		{
			"mimeType":"image/png",
			"name":"Normal",
			"uri":"Normal.png"
		},
		{
			"mimeType":"image/png",
			"name":"BaseColor",
			"uri":"BaseColor.png"
		},
		{
			"mimeType":"image/png",
			"name":"Metallic-Roughness",
			"uri":"Metallic-Roughness.png"
		}
	],
	"accessors":[
		{
			"bufferView":0,
			"componentType":5126,
			"count":218,
			"max":[
				0.9950629472732544,
				0.4525183439254761,
				0.25000008940696716
			],
			"min":[
				-1.0081369876861572,
				0.00023079384118318558,
				-0.25000008940696716
			],
			"type":"VEC3"
		},
		{
			"bufferView":1,
			"componentType":5126,
			"count":218,
			"type":"VEC2"
		},
		{
			"bufferView":2,
			"componentType":5126,
			"count":218,
			"type":"VEC3"
		},
		{
			"bufferView":3,
			"componentType":5123,
			"count":552,
			"type":"SCALAR"
		},
		{
			"bufferView":4,
			"componentType":5126,
			"count":627,
			"max":[
				0.9550629258155823,
				0.4525183439254761,
				0.24798306822776794
			],
			"min":[
				-0.9701370596885681,
				0.419910192489624,
				-0.24961961805820465
			],
			"type":"VEC3"
		},
		{
			"bufferView":5,
			"componentType":5126,
			"count":627,
			"type":"VEC2"
		},
		{
			"bufferView":6,
			"componentType":5126,
			"count":627,
			"type":"VEC3"
		},
		{
			"bufferView":7,
			"componentType":5123,
			"count":1584,
			"type":"SCALAR"
		},
		{
			"bufferView":8,
			"componentType":5126,
			"count":104,
			"max":[
				0.9676479697227478,
				0.419910192489624,
				0.247999906539917
			],
			"min":[
				-0.9676479697227478,
				0.41012996435165405,
				-0.24800005555152893
			],
			"type":"VEC3"
		},
		{
			"bufferView":9,
			"componentType":5126,
			"count":104,
			"type":"VEC2"
		},
		{
			"bufferView":10,
			"componentType":5126,
			"count":104,
			"type":"VEC3"
		},
		{
			"bufferView":11,
			"componentType":5123,
			"count":264,
			"type":"SCALAR"
		},
		{
			"bufferView":12,
			"componentType":5126,
			"count":523,
			"max":[
				1.0041863918304443,
				0.008744749240577221,
				0.2633022367954254
			],
			"min":[
				-1.017403483390808,
				2.1414831280708313e-05,
				-0.2633022367954254
			],
			"type":"VEC3"
		},
		{
			"bufferView":13,
			"componentType":5126,
			"count":523,
			"type":"VEC2"
		},
		{
			"bufferView":14,
			"componentType":5126,
			"count":523,
			"type":"VEC3"
		},
		{
			"bufferView":15,
			"componentType":5123,
			"count":1104,
			"type":"SCALAR"
		},
		{
			"bufferView":16,
			"componentType":5126,
			"count":24,
			"max":[
				1,
				2,
				1
			],
			"min":[
				-1,
				0,
				-1
			],
			"type":"VEC3"
		},
		{
			"bufferView":17,
			"componentType":5126,
			"count":24,
			"type":"VEC2"
		},
		{
			"bufferView":18,
			"componentType":5126,
			"count":24,
			"type":"VEC3"
		},
		{
			"bufferView":19,
			"componentType":5123,
			"count":36,
			"type":"SCALAR"
		}
	],
	"bufferViews":[
		{
			"buffer":0,
			"byteLength":2616,
			"byteOffset":0,
			"target":34962
		},
		{
			"buffer":0,
			"byteLength":1744,
			"byteOffset":2616,
			"target":34962
		},
		{
			"buffer":0,
			"byteLength":2616,
			"byteOffset":4360,
			"target":34962
		},
		{
			"buffer":0,
			"byteLength":1104,
			"byteOffset":6976,
			"target":34963
		},
		{
			"buffer":0,
			"byteLength":7524,
			"byteOffset":8080,
			"target":34962
		},
		{
			"buffer":0,
			"byteLength":5016,
			"byteOffset":15604,
			"target":34962
		},
		{
			"buffer":0,
			"byteLength":7524,
			"byteOffset":20620,
			"target":34962
		},
		{
			"buffer":0,
			"byteLength":3168,
			"byteOffset":28144,
			"target":34963
		},
		{
			"buffer":0,
			"byteLength":1248,
			"byteOffset":31312,
			"target":34962
		},
		{
			"buffer":0,
			"byteLength":832,
			"byteOffset":32560,
			"target":34962
		},
		{
			"buffer":0,
			"byteLength":1248,
			"byteOffset":33392,
			"target":34962
		},
		{
			"buffer":0,
			"byteLength":528,
			"byteOffset":34640,
			"target":34963
		},
		{
			"buffer":0,
			"byteLength":6276,
			"byteOffset":35168,
			"target":34962
		},
		{
			"buffer":0,
			"byteLength":4184,
			"byteOffset":41444,
			"target":34962
		},
		{
			"buffer":0,
			"byteLength":6276,
			"byteOffset":45628,
			"target":34962
		},
		{
			"buffer":0,
			"byteLength":2208,
			"byteOffset":51904,
			"target":34963
		},
		{
			"buffer":0,
			"byteLength":288,
			"byteOffset":54112,
			"target":34962
		},
		{
			"buffer":0,
			"byteLength":192,
			"byteOffset":54400,
			"target":34962
		},
		{
			"buffer":0,
			"byteLength":288,
			"byteOffset":54592,
			"target":34962
		},
		{
			"buffer":0,
			"byteLength":72,
			"byteOffset":54880,
			"target":34963
		}
	],
	"samplers":[
		{
			"magFilter":9729,
			"minFilter":9987
		}
	],
	"buffers":[
		{
			"byteLength":54952,
			"uri":"Bench.bin"
		}
	]
}
