{
	"asset":{
		"generator":"Khronos glTF Blender I/O v3.5.30",
		"version":"2.0"
	},
	"extensionsUsed":[
		"KHR_materials_specular",
		"KHR_materials_ior"
	],
	"scene":0,
	"scenes":[
		{
			"name":"Scene",
			"nodes":[
				0,
				1,
				2,
				5,
				6
			]
		}
	],
	"nodes":[
		{
			"mesh":0,
			"name":"Cube"
		},
		{
			"mesh":1,
			"name":"COL.001",
			"scale":[
				2.2502975463867188,
				1.5766406059265137,
				1
			],
			"translation":[
				0,
				1.6398857831954956,
				0
			]
		},
		{
			"mesh":2,
			"name":"Cow_Low_Poly"
		},
		{
			"name":"13452_DiamondCrown.001",
			"translation":[
				0,
				0,
				-2.86102294921875e-06
			]
		},
		{
			"children":[
				3
			],
			"mesh":3,
			"name":"13452_DiamondCrown",
			"rotation":[
				0.01540472824126482,
				-5.802220766781829e-05,
				0,
				0.9998814463615417
			],
			"scale":[
				0.09999900311231613,
				0.09999901801347733,
				0.09999899566173553
			],
			"translation":[
				0.010771284811198711,
				2.8597309589385986,
				1.2115310430526733
			]
		},
		{
			"children":[
				4
			],
			"name":"13452_Diamond_Crown_v1_L1",
			"rotation":[
				0.028735879808664322,
				0.7065226435661316,
				-0.026074571534991264,
				0.7066258788108826
			],
			"scale":[
				0.9999979734420776,
				1,
				0.999997615814209
			]
		},
		{
			"mesh":4,
			"name":"COL",
			"scale":[
				2.1600000858306885,
				0.1889999955892563,
				0.8999999761581421
			],
			"translation":[
				0,
				0.1889999955892563,
				0
			]
		}
	],
	"materials":[
		{
			"doubleSided":true,
			"extensions":{
				"KHR_materials_specular":{
					"specularColorFactor":[
						2.371357614441398,
						2.371357614441398,
						2.371357614441398
					]
				},
				"KHR_materials_ior":{
					"ior":1.4500000476837158
				}
			},
			"name":"Material.001",
			"normalTexture":{
				"index":0
			},
			"pbrMetallicRoughness":{
				"baseColorTexture":{
					"index":1
				},
				"metallicFactor":0,
				"metallicRoughnessTexture":{
					"index":2
				}
			}
		},
		{
			"doubleSided":true,
			"name":"Cow_Tris_Material",
			"normalTexture":{
				"index":3
			},
			"pbrMetallicRoughness":{
				"baseColorTexture":{
					"index":4
				},
				"metallicFactor":0,
				"metallicRoughnessTexture":{
					"index":5
				}
			}
		},
		{
			"doubleSided":true,
			"extensions":{
				"KHR_materials_specular":{
					"specularColorFactor":[
						2.371357614441398,
						2.371357614441398,
						2.371357614441398
					]
				},
				"KHR_materials_ior":{
					"ior":1.4500000476837158
				}
			},
			"name":"Gold",
			"normalTexture":{
				"index":6
			},
			"pbrMetallicRoughness":{
				"baseColorTexture":{
					"index":7
				},
				"metallicRoughnessTexture":{
					"index":8
				}
			}
		}
	],
	"meshes":[
		{
			"name":"Cube.002",
			"primitives":[
				{
					"attributes":{
						"POSITION":0,
						"TEXCOORD_0":1,
						"NORMAL":2
					},
					"indices":3,
					"material":0
				}
			]
		},
		{
			"name":"\u7403",
			"primitives":[
				{
					"attributes":{
						"POSITION":4,
						"TEXCOORD_0":5,
						"NORMAL":6
					},
					"indices":7
				}
			]
		},
		{
			"name":"Cow.001",
			"primitives":[
				{
					"attributes":{
						"POSITION":8,
						"TEXCOORD_0":9,
						"NORMAL":10
					},
					"indices":11,
					"material":1
				}
			]
		},
		{
			"name":"\u30e1\u30c3\u30b7\u30e5.017",
			"primitives":[
				{
					"attributes":{
						"POSITION":12,
						"TEXCOORD_0":13,
						"NORMAL":14
					},
					"indices":15,
					"material":2
				}
			]
		},
		{
			"name":"\u7acb\u65b9\u4f53",
			"primitives":[
				{
					"attributes":{
						"POSITION":16,
						"TEXCOORD_0":17,
						"NORMAL":18
					},
					"indices":19
				}
			]
		}
	],
	"textures":[
		{
			"sampler":0,
			"source":0
		},
		{
			"sampler":0,
			"source":1
		},
		{
			"sampler":0,
			"source":2
		},
		{
			"sampler":0,
			"source":3
		},
		{
			"sampler":0,
			"source":4
		},
		{
			"sampler":0,
			"source":5
		},
		{
			"sampler":0,
			"source":6
		},
		{
			"sampler":0,
			"source":7
		},
		{
			"sampler":0,
			"source":8
		}
	],
	"images":[
		{
			"mimeType":"image/png",
			"name":"stone_4_normal-1K",
			"uri":"stone_4_normal-1K.png"
		},
		{
			"mimeType":"image/png",
			"name":"stone_4_basecolor-1K",
			"uri":"stone_4_basecolor-1K.png"
		},
		{
			"mimeType":"image/png",
			"name":"stone_4_roughness-1K",
			"uri":"stone_4_roughness-1K.png"
		},
		{
			"mimeType":"image/png",
			"name":"Cow_Normal",
			"uri":"Cow_Normal.png"
		},
		{
			"mimeType":"image/png",
			"name":"Cow_Base",
			"uri":"Cow_Base.png"
		},
		{
			"mimeType":"image/png",
			"name":"Cow_Roughness",
			"uri":"Cow_Roughness.png"
		},
		{
			"mimeType":"image/png",
			"name":"Crown_Normal",
			"uri":"Crown_Normal.png"
		},
		{
			"mimeType":"image/png",
			"name":"Crown_Base",
			"uri":"Crown_Base.png"
		},
		{
			"mimeType":"image/png",
			"name":"Crown_Metal-Crown_Roughness",
			"uri":"Crown_Metal-Crown_Roughness.png"
		}
	],
	"accessors":[
		{
			"bufferView":0,
			"componentType":5126,
			"count":64,
			"max":[
				2.1600000858306885,
				0.3780002295970917,
				0.9000000357627869
			],
			"min":[
				-2.1600000858306885,
				0,
				-0.9000000357627869
			],
			"type":"VEC3"
		},
		{
			"bufferView":1,
			"componentType":5126,
			"count":64,
			"type":"VEC2"
		},
		{
			"bufferView":2,
			"componentType":5126,
			"count":64,
			"type":"VEC3"
		},
		{
			"bufferView":3,
			"componentType":5123,
			"count":132,
			"type":"SCALAR"
		},
		{
			"bufferView":4,
			"componentType":5126,
			"count":1984,
			"max":[
				0.9999997019767761,
				1,
				0.9999993443489075
			],
			"min":[
				-0.9999990463256836,
				-1,
				-1
			],
			"type":"VEC3"
		},
		{
			"bufferView":5,
			"componentType":5126,
			"count":1984,
			"type":"VEC2"
		},
		{
			"bufferView":6,
			"componentType":5126,
			"count":1984,
			"type":"VEC3"
		},
		{
			"bufferView":7,
			"componentType":5123,
			"count":2880,
			"type":"SCALAR"
		},
		{
			"bufferView":8,
			"componentType":5126,
			"count":974,
			"max":[
				2.1297929286956787,
				2.847623586654663,
				0.6592172384262085
			],
			"min":[
				-1.7164818048477173,
				0.38868066668510437,
				-0.6660431027412415
			],
			"type":"VEC3"
		},
		{
			"bufferView":9,
			"componentType":5126,
			"count":974,
			"type":"VEC2"
		},
		{
			"bufferView":10,
			"componentType":5126,
			"count":974,
			"type":"VEC3"
		},
		{
			"bufferView":11,
			"componentType":5123,
			"count":2994,
			"type":"SCALAR"
		},
		{
			"bufferView":12,
			"componentType":5126,
			"count":49728,
			"max":[
				3.408099889755249,
				2.197200059890747,
				3.408099889755249
			],
			"min":[
				-3.408099889755249,
				-0.0012000000569969416,
				-3.408099889755249
			],
			"type":"VEC3"
		},
		{
			"bufferView":13,
			"componentType":5126,
			"count":49728,
			"type":"VEC2"
		},
		{
			"bufferView":14,
			"componentType":5126,
			"count":49728,
			"type":"VEC3"
		},
		{
			"bufferView":15,
			"componentType":5123,
			"count":111648,
			"type":"SCALAR"
		},
		{
			"bufferView":16,
			"componentType":5126,
			"count":24,
			"max":[
				1,
				1,
				1
			],
			"min":[
				-1,
				-1,
				-1
			],
			"type":"VEC3"
		},
		{
			"bufferView":17,
			"componentType":5126,
			"count":24,
			"type":"VEC2"
		},
		{
			"bufferView":18,
			"componentType":5126,
			"count":24,
			"type":"VEC3"
		},
		{
			"bufferView":19,
			"componentType":5123,
			"count":36,
			"type":"SCALAR"
		}
	],
	"bufferViews":[
		{
			"buffer":0,
			"byteLength":768,
			"byteOffset":0,
			"target":34962
		},
		{
			"buffer":0,
			"byteLength":512,
			"byteOffset":768,
			"target":34962
		},
		{
			"buffer":0,
			"byteLength":768,
			"byteOffset":1280,
			"target":34962
		},
		{
			"buffer":0,
			"byteLength":264,
			"byteOffset":2048,
			"target":34963
		},
		{
			"buffer":0,
			"byteLength":23808,
			"byteOffset":2312,
			"target":34962
		},
		{
			"buffer":0,
			"byteLength":15872,
			"byteOffset":26120,
			"target":34962
		},
		{
			"buffer":0,
			"byteLength":23808,
			"byteOffset":41992,
			"target":34962
		},
		{
			"buffer":0,
			"byteLength":5760,
			"byteOffset":65800,
			"target":34963
		},
		{
			"buffer":0,
			"byteLength":11688,
			"byteOffset":71560,
			"target":34962
		},
		{
			"buffer":0,
			"byteLength":7792,
			"byteOffset":83248,
			"target":34962
		},
		{
			"buffer":0,
			"byteLength":11688,
			"byteOffset":91040,
			"target":34962
		},
		{
			"buffer":0,
			"byteLength":5988,
			"byteOffset":102728,
			"target":34963
		},
		{
			"buffer":0,
			"byteLength":596736,
			"byteOffset":108716,
			"target":34962
		},
		{
			"buffer":0,
			"byteLength":397824,
			"byteOffset":705452,
			"target":34962
		},
		{
			"buffer":0,
			"byteLength":596736,
			"byteOffset":1103276,
			"target":34962
		},
		{
			"buffer":0,
			"byteLength":223296,
			"byteOffset":1700012,
			"target":34963
		},
		{
			"buffer":0,
			"byteLength":288,
			"byteOffset":1923308,
			"target":34962
		},
		{
			"buffer":0,
			"byteLength":192,
			"byteOffset":1923596,
			"target":34962
		},
		{
			"buffer":0,
			"byteLength":288,
			"byteOffset":1923788,
			"target":34962
		},
		{
			"buffer":0,
			"byteLength":72,
			"byteOffset":1924076,
			"target":34963
		}
	],
	"samplers":[
		{
			"magFilter":9729,
			"minFilter":9987
		}
	],
	"buffers":[
		{
			"byteLength":1924148,
			"uri":"Cow.bin"
		}
	]
}
