{
	"asset":{
		"generator":"Khronos glTF Blender I/O v3.5.30",
		"version":"2.0"
	},
	"scene":0,
	"scenes":[
		{
			"name":"Scene",
			"nodes":[
				0,
				1,
				2,
				3,
				4,
				5,
				6,
				7
			]
		}
	],
	"nodes":[
		{
			"mesh":0,
			"name":"Japanese_House_2_Wall_Back",
			"translation":[
				0,
				0,
				2.5
			]
		},
		{
			"mesh":1,
			"name":"Japanese_House_2_Door",
			"translation":[
				-1.149999976158142,
				0,
				-2.5
			]
		},
		{
			"mesh":2,
			"name":"Japanese_House_2_Roof",
			"translation":[
				0,
				3.5,
				0
			]
		},
		{
			"mesh":3,
			"name":"Japanese_House_2_Wall_Front",
			"translation":[
				0,
				0,
				-2.5
			]
		},
		{
			"mesh":4,
			"name":"Japanese_House_2_Wall_Left",
			"translation":[
				3,
				0,
				0
			]
		},
		{
			"mesh":5,
			"name":"Japanese_House_2_Wall_Right",
			"translation":[
				-3,
				0,
				0
			]
		},
		{
			"mesh":6,
			"name":"Japanese_House_2_Window",
			"translation":[
				1.149999976158142,
				1.5,
				-2.5
			]
		},
		{
			"mesh":7,
			"name":"COL",
			"scale":[
				3.3743910789489746,
				3.3743910789489746,
				3.3743910789489746
			]
		}
	],
	"materials":[
		{
			"name":"Japanese_House_2",
			"pbrMetallicRoughness":{
				"baseColorTexture":{
					"index":0
				},
				"metallicFactor":0
			}
		}
	],
	"meshes":[
		{
			"name":"Cube.079",
			"primitives":[
				{
					"attributes":{
						"POSITION":0,
						"TEXCOORD_0":1,
						"NORMAL":2
					},
					"indices":3,
					"material":0
				}
			]
		},
		{
			"name":"Cube.072",
			"primitives":[
				{
					"attributes":{
						"POSITION":4,
						"TEXCOORD_0":5,
						"NORMAL":6
					},
					"indices":7,
					"material":0
				}
			]
		},
		{
			"name":"Cube.084",
			"primitives":[
				{
					"attributes":{
						"POSITION":8,
						"TEXCOORD_0":9,
						"TEXCOORD_1":10,
						"NORMAL":11
					},
					"indices":12,
					"material":0
				}
			]
		},
		{
			"name":"Cube.001",
			"primitives":[
				{
					"attributes":{
						"POSITION":13,
						"TEXCOORD_0":14,
						"NORMAL":15
					},
					"indices":16,
					"material":0
				}
			]
		},
		{
			"name":"Cube.002",
			"primitives":[
				{
					"attributes":{
						"POSITION":17,
						"TEXCOORD_0":18,
						"NORMAL":19
					},
					"indices":20,
					"material":0
				}
			]
		},
		{
			"name":"Cube.012",
			"primitives":[
				{
					"attributes":{
						"POSITION":21,
						"TEXCOORD_0":22,
						"NORMAL":23
					},
					"indices":24,
					"material":0
				}
			]
		},
		{
			"name":"\u5e73\u9762",
			"primitives":[
				{
					"attributes":{
						"POSITION":25,
						"TEXCOORD_0":26,
						"TEXCOORD_1":27,
						"NORMAL":28
					},
					"indices":29,
					"material":0
				}
			]
		},
		{
			"name":"Cube",
			"primitives":[
				{
					"attributes":{
						"POSITION":30,
						"TEXCOORD_0":31,
						"NORMAL":32
					},
					"indices":33
				}
			]
		}
	],
	"textures":[
		{
			"sampler":0,
			"source":0
		}
	],
	"images":[
		{
			"mimeType":"image/png",
			"name":"Japanese_Farmers_House_Diffuse_Texture",
			"uri":"Japanese_Farmers_House_Diffuse_Texture.png"
		}
	],
	"accessors":[
		{
			"bufferView":0,
			"componentType":5126,
			"count":68,
			"max":[
				2.7999956607818604,
				2.8556604385375977,
				0.0317501500248909
			],
			"min":[
				-2.800004482269287,
				0,
				-0.0058182962238788605
			],
			"type":"VEC3"
		},
		{
			"bufferView":1,
			"componentType":5126,
			"count":68,
			"type":"VEC2"
		},
		{
			"bufferView":2,
			"componentType":5126,
			"count":68,
			"type":"VEC3"
		},
		{
			"bufferView":3,
			"componentType":5123,
			"count":102,
			"type":"SCALAR"
		},
		{
			"bufferView":4,
			"componentType":5126,
			"count":28,
			"max":[
				0.5000000596046448,
				2.3000004291534424,
				0.20138336718082428
			],
			"min":[
				-0.5,
				5.9604644775390625e-06,
				-0.030496105551719666
			],
			"type":"VEC3"
		},
		{
			"bufferView":5,
			"componentType":5126,
			"count":28,
			"type":"VEC2"
		},
		{
			"bufferView":6,
			"componentType":5126,
			"count":28,
			"type":"VEC3"
		},
		{
			"bufferView":7,
			"componentType":5123,
			"count":42,
			"type":"SCALAR"
		},
		{
			"bufferView":8,
			"componentType":5126,
			"count":257,
			"max":[
				3.009999990463257,
				1.0311843156814575,
				3.343682289123535
			],
			"min":[
				-3.009999990463257,
				-1.0470212697982788,
				-3.343681812286377
			],
			"type":"VEC3"
		},
		{
			"bufferView":9,
			"componentType":5126,
			"count":257,
			"type":"VEC2"
		},
		{
			"bufferView":10,
			"componentType":5126,
			"count":257,
			"type":"VEC2"
		},
		{
			"bufferView":11,
			"componentType":5126,
			"count":257,
			"type":"VEC3"
		},
		{
			"bufferView":12,
			"componentType":5123,
			"count":456,
			"type":"SCALAR"
		},
		{
			"bufferView":13,
			"componentType":5126,
			"count":68,
			"max":[
				2.8000001907348633,
				2.837594985961914,
				0.007013242691755295
			],
			"min":[
				-2.8000004291534424,
				-9.094947017729282e-13,
				-0.0355197973549366
			],
			"type":"VEC3"
		},
		{
			"bufferView":14,
			"componentType":5126,
			"count":68,
			"type":"VEC2"
		},
		{
			"bufferView":15,
			"componentType":5126,
			"count":68,
			"type":"VEC3"
		},
		{
			"bufferView":16,
			"componentType":5123,
			"count":102,
			"type":"SCALAR"
		},
		{
			"bufferView":17,
			"componentType":5126,
			"count":119,
			"max":[
				-0.004998758435249329,
				4.0961713790893555,
				2.532890558242798
			],
			"min":[
				-0.20499952137470245,
				0,
				-2.535649538040161
			],
			"type":"VEC3"
		},
		{
			"bufferView":18,
			"componentType":5126,
			"count":119,
			"type":"VEC2"
		},
		{
			"bufferView":19,
			"componentType":5126,
			"count":119,
			"type":"VEC3"
		},
		{
			"bufferView":20,
			"componentType":5123,
			"count":201,
			"type":"SCALAR"
		},
		{
			"bufferView":21,
			"componentType":5126,
			"count":119,
			"max":[
				0.20499946177005768,
				4.096169948577881,
				2.532890796661377
			],
			"min":[
				0.004998937249183655,
				-4.547473508864641e-13,
				-2.535649299621582
			],
			"type":"VEC3"
		},
		{
			"bufferView":22,
			"componentType":5126,
			"count":119,
			"type":"VEC2"
		},
		{
			"bufferView":23,
			"componentType":5126,
			"count":119,
			"type":"VEC3"
		},
		{
			"bufferView":24,
			"componentType":5123,
			"count":201,
			"type":"SCALAR"
		},
		{
			"bufferView":25,
			"componentType":5126,
			"count":164,
			"max":[
				0.5004068613052368,
				0.4999869763851166,
				0.13412998616695404
			],
			"min":[
				-0.49959316849708557,
				-0.5000130534172058,
				-0.08424980938434601
			],
			"type":"VEC3"
		},
		{
			"bufferView":26,
			"componentType":5126,
			"count":164,
			"type":"VEC2"
		},
		{
			"bufferView":27,
			"componentType":5126,
			"count":164,
			"type":"VEC2"
		},
		{
			"bufferView":28,
			"componentType":5126,
			"count":164,
			"type":"VEC3"
		},
		{
			"bufferView":29,
			"componentType":5123,
			"count":246,
			"type":"SCALAR"
		},
		{
			"bufferView":30,
			"componentType":5126,
			"count":30,
			"max":[
				0.9001643061637878,
				1.3604426383972168,
				0.9917446970939636
			],
			"min":[
				-0.9001101851463318,
				0,
				-0.9960623383522034
			],
			"type":"VEC3"
		},
		{
			"bufferView":31,
			"componentType":5126,
			"count":30,
			"type":"VEC2"
		},
		{
			"bufferView":32,
			"componentType":5126,
			"count":30,
			"type":"VEC3"
		},
		{
			"bufferView":33,
			"componentType":5123,
			"count":48,
			"type":"SCALAR"
		}
	],
	"bufferViews":[
		{
			"buffer":0,
			"byteLength":816,
			"byteOffset":0,
			"target":34962
		},
		{
			"buffer":0,
			"byteLength":544,
			"byteOffset":816,
			"target":34962
		},
		{
			"buffer":0,
			"byteLength":816,
			"byteOffset":1360,
			"target":34962
		},
		{
			"buffer":0,
			"byteLength":204,
			"byteOffset":2176,
			"target":34963
		},
		{
			"buffer":0,
			"byteLength":336,
			"byteOffset":2380,
			"target":34962
		},
		{
			"buffer":0,
			"byteLength":224,
			"byteOffset":2716,
			"target":34962
		},
		{
			"buffer":0,
			"byteLength":336,
			"byteOffset":2940,
			"target":34962
		},
		{
			"buffer":0,
			"byteLength":84,
			"byteOffset":3276,
			"target":34963
		},
		{
			"buffer":0,
			"byteLength":3084,
			"byteOffset":3360,
			"target":34962
		},
		{
			"buffer":0,
			"byteLength":2056,
			"byteOffset":6444,
			"target":34962
		},
		{
			"buffer":0,
			"byteLength":2056,
			"byteOffset":8500,
			"target":34962
		},
		{
			"buffer":0,
			"byteLength":3084,
			"byteOffset":10556,
			"target":34962
		},
		{
			"buffer":0,
			"byteLength":912,
			"byteOffset":13640,
			"target":34963
		},
		{
			"buffer":0,
			"byteLength":816,
			"byteOffset":14552,
			"target":34962
		},
		{
			"buffer":0,
			"byteLength":544,
			"byteOffset":15368,
			"target":34962
		},
		{
			"buffer":0,
			"byteLength":816,
			"byteOffset":15912,
			"target":34962
		},
		{
			"buffer":0,
			"byteLength":204,
			"byteOffset":16728,
			"target":34963
		},
		{
			"buffer":0,
			"byteLength":1428,
			"byteOffset":16932,
			"target":34962
		},
		{
			"buffer":0,
			"byteLength":952,
			"byteOffset":18360,
			"target":34962
		},
		{
			"buffer":0,
			"byteLength":1428,
			"byteOffset":19312,
			"target":34962
		},
		{
			"buffer":0,
			"byteLength":402,
			"byteOffset":20740,
			"target":34963
		},
		{
			"buffer":0,
			"byteLength":1428,
			"byteOffset":21144,
			"target":34962
		},
		{
			"buffer":0,
			"byteLength":952,
			"byteOffset":22572,
			"target":34962
		},
		{
			"buffer":0,
			"byteLength":1428,
			"byteOffset":23524,
			"target":34962
		},
		{
			"buffer":0,
			"byteLength":402,
			"byteOffset":24952,
			"target":34963
		},
		{
			"buffer":0,
			"byteLength":1968,
			"byteOffset":25356,
			"target":34962
		},
		{
			"buffer":0,
			"byteLength":1312,
			"byteOffset":27324,
			"target":34962
		},
		{
			"buffer":0,
			"byteLength":1312,
			"byteOffset":28636,
			"target":34962
		},
		{
			"buffer":0,
			"byteLength":1968,
			"byteOffset":29948,
			"target":34962
		},
		{
			"buffer":0,
			"byteLength":492,
			"byteOffset":31916,
			"target":34963
		},
		{
			"buffer":0,
			"byteLength":360,
			"byteOffset":32408,
			"target":34962
		},
		{
			"buffer":0,
			"byteLength":240,
			"byteOffset":32768,
			"target":34962
		},
		{
			"buffer":0,
			"byteLength":360,
			"byteOffset":33008,
			"target":34962
		},
		{
			"buffer":0,
			"byteLength":96,
			"byteOffset":33368,
			"target":34963
		}
	],
	"samplers":[
		{
			"magFilter":9729,
			"minFilter":9987
		}
	],
	"buffers":[
		{
			"byteLength":33464,
			"uri":"Japanese_Farmers_House.bin"
		}
	]
}
