{
	"asset":{
		"generator":"Khronos glTF Blender I/O v3.5.30",
		"version":"2.0"
	},
	"extensionsUsed":[
		"KHR_materials_specular",
		"KHR_materials_ior"
	],
	"scene":0,
	"scenes":[
		{
			"name":"Scene",
			"nodes":[
				0,
				1
			]
		}
	],
	"nodes":[
		{
			"mesh":0,
			"name":"Rice_Ball"
		},
		{
			"mesh":1,
			"name":"Sea_Weed"
		}
	],
	"materials":[
		{
			"extensions":{
				"KHR_materials_specular":{
					"specularColorFactor":[
						0,
						0,
						0
					]
				},
				"KHR_materials_ior":{
					"ior":1.4500000476837158
				}
			},
			"name":"Material",
			"pbrMetallicRoughness":{
				"baseColorTexture":{
					"index":0
				},
				"metallicFactor":0,
				"roughnessFactor":0.5
			}
		}
	],
	"meshes":[
		{
			"name":"Cube.057",
			"primitives":[
				{
					"attributes":{
						"POSITION":0,
						"TEXCOORD_0":1,
						"NORMAL":2
					},
					"indices":3,
					"material":0
				}
			]
		},
		{
			"name":"Cube.001",
			"primitives":[
				{
					"attributes":{
						"POSITION":4,
						"TEXCOORD_0":5,
						"NORMAL":6
					},
					"indices":7,
					"material":0
				}
			]
		}
	],
	"textures":[
		{
			"sampler":0,
			"source":0
		}
	],
	"images":[
		{
			"mimeType":"image/png",
			"name":"Base",
			"uri":"Base.png"
		}
	],
	"accessors":[
		{
			"bufferView":0,
			"componentType":5126,
			"count":138,
			"max":[
				0.35429084300994873,
				1.1861821413040161,
				0.6609534621238708
			],
			"min":[
				-0.35429084300994873,
				0.02404235303401947,
				-0.6609535813331604
			],
			"type":"VEC3"
		},
		{
			"bufferView":1,
			"componentType":5126,
			"count":138,
			"type":"VEC2"
		},
		{
			"bufferView":2,
			"componentType":5126,
			"count":138,
			"type":"VEC3"
		},
		{
			"bufferView":3,
			"componentType":5123,
			"count":648,
			"type":"SCALAR"
		},
		{
			"bufferView":4,
			"componentType":5126,
			"count":101,
			"max":[
				0.37991029024124146,
				0.6954474449157715,
				0.4667944014072418
			],
			"min":[
				-0.37991029024124146,
				-0.004521086812019348,
				-0.4667944014072418
			],
			"type":"VEC3"
		},
		{
			"bufferView":5,
			"componentType":5126,
			"count":101,
			"type":"VEC2"
		},
		{
			"bufferView":6,
			"componentType":5126,
			"count":101,
			"type":"VEC3"
		},
		{
			"bufferView":7,
			"componentType":5123,
			"count":336,
			"type":"SCALAR"
		}
	],
	"bufferViews":[
		{
			"buffer":0,
			"byteLength":1656,
			"byteOffset":0,
			"target":34962
		},
		{
			"buffer":0,
			"byteLength":1104,
			"byteOffset":1656,
			"target":34962
		},
		{
			"buffer":0,
			"byteLength":1656,
			"byteOffset":2760,
			"target":34962
		},
		{
			"buffer":0,
			"byteLength":1296,
			"byteOffset":4416,
			"target":34963
		},
		{
			"buffer":0,
			"byteLength":1212,
			"byteOffset":5712,
			"target":34962
		},
		{
			"buffer":0,
			"byteLength":808,
			"byteOffset":6924,
			"target":34962
		},
		{
			"buffer":0,
			"byteLength":1212,
			"byteOffset":7732,
			"target":34962
		},
		{
			"buffer":0,
			"byteLength":672,
			"byteOffset":8944,
			"target":34963
		}
	],
	"samplers":[
		{
			"magFilter":9729,
			"minFilter":9987
		}
	],
	"buffers":[
		{
			"byteLength":9616,
			"uri":"Rice_Ball.bin"
		}
	]
}
