{
	"asset":{
		"generator":"Khronos glTF Blender I/O v3.5.30",
		"version":"2.0"
	},
	"scene":0,
	"scenes":[
		{
			"name":"Scene",
			"nodes":[
				0,
				1,
				2,
				3,
				4
			]
		}
	],
	"nodes":[
		{
			"mesh":0,
			"name":"Sphere"
		},
		{
			"mesh":1,
			"name":"leg.L"
		},
		{
			"mesh":2,
			"name":"arm.R"
		},
		{
			"mesh":3,
			"name":"arm.L"
		},
		{
			"mesh":4,
			"name":"leg.R"
		}
	],
	"animations":[
		{
			"channels":[
				{
					"sampler":0,
					"target":{
						"node":1,
						"path":"rotation"
					}
				},
				{
					"sampler":1,
					"target":{
						"node":2,
						"path":"translation"
					}
				},
				{
					"sampler":2,
					"target":{
						"node":3,
						"path":"translation"
					}
				},
				{
					"sampler":3,
					"target":{
						"node":4,
						"path":"rotation"
					}
				}
			],
			"name":"Stand",
			"samplers":[
				{
					"input":19,
					"interpolation":"STEP",
					"output":20
				},
				{
					"input":21,
					"interpolation":"LINEAR",
					"output":22
				},
				{
					"input":21,
					"interpolation":"LINEAR",
					"output":23
				},
				{
					"input":19,
					"interpolation":"STEP",
					"output":24
				}
			]
		},
		{
			"channels":[
				{
					"sampler":0,
					"target":{
						"node":1,
						"path":"rotation"
					}
				},
				{
					"sampler":1,
					"target":{
						"node":2,
						"path":"translation"
					}
				},
				{
					"sampler":2,
					"target":{
						"node":3,
						"path":"translation"
					}
				},
				{
					"sampler":3,
					"target":{
						"node":4,
						"path":"rotation"
					}
				}
			],
			"name":"Walk",
			"samplers":[
				{
					"input":21,
					"interpolation":"LINEAR",
					"output":25
				},
				{
					"input":21,
					"interpolation":"LINEAR",
					"output":26
				},
				{
					"input":21,
					"interpolation":"LINEAR",
					"output":27
				},
				{
					"input":21,
					"interpolation":"LINEAR",
					"output":28
				}
			]
		}
	],
	"materials":[
		{
			"doubleSided":true,
			"name":"Material",
			"pbrMetallicRoughness":{
				"baseColorTexture":{
					"index":0
				},
				"metallicFactor":0,
				"roughnessFactor":0.5
			}
		},
		{
			"doubleSided":true,
			"name":"Material.004",
			"pbrMetallicRoughness":{
				"baseColorTexture":{
					"index":1
				},
				"metallicFactor":0,
				"roughnessFactor":0.5
			}
		},
		{
			"doubleSided":true,
			"name":"Material.001",
			"pbrMetallicRoughness":{
				"baseColorTexture":{
					"index":2
				},
				"metallicFactor":0,
				"roughnessFactor":0.5
			}
		},
		{
			"doubleSided":true,
			"name":"Material.003",
			"pbrMetallicRoughness":{
				"baseColorTexture":{
					"index":3
				},
				"metallicFactor":0,
				"roughnessFactor":0.5
			}
		},
		{
			"doubleSided":true,
			"name":"Material.002",
			"pbrMetallicRoughness":{
				"baseColorTexture":{
					"index":4
				},
				"metallicFactor":0,
				"roughnessFactor":0.5
			}
		}
	],
	"meshes":[
		{
			"name":"Sphere",
			"primitives":[
				{
					"attributes":{
						"POSITION":0,
						"TEXCOORD_0":1,
						"NORMAL":2
					},
					"indices":3,
					"material":0
				}
			]
		},
		{
			"name":"Sphere.001",
			"primitives":[
				{
					"attributes":{
						"POSITION":4,
						"TEXCOORD_0":5,
						"NORMAL":6
					},
					"indices":7,
					"material":1
				}
			]
		},
		{
			"name":"Sphere.002",
			"primitives":[
				{
					"attributes":{
						"POSITION":8,
						"TEXCOORD_0":9,
						"NORMAL":10
					},
					"indices":11,
					"material":2
				}
			]
		},
		{
			"name":"Sphere.003",
			"primitives":[
				{
					"attributes":{
						"POSITION":12,
						"TEXCOORD_0":13,
						"NORMAL":14
					},
					"indices":15,
					"material":3
				}
			]
		},
		{
			"name":"Sphere.004",
			"primitives":[
				{
					"attributes":{
						"POSITION":16,
						"TEXCOORD_0":17,
						"NORMAL":18
					},
					"indices":15,
					"material":4
				}
			]
		}
	],
	"textures":[
		{
			"sampler":0,
			"source":0
		},
		{
			"sampler":0,
			"source":1
		},
		{
			"sampler":0,
			"source":2
		},
		{
			"sampler":0,
			"source":2
		},
		{
			"sampler":0,
			"source":1
		}
	],
	"images":[
		{
			"mimeType":"image/png",
			"name":"Sphere",
			"uri":"Sphere.png"
		},
		{
			"mimeType":"image/png",
			"name":"leg",
			"uri":"leg.png"
		},
		{
			"mimeType":"image/png",
			"name":"arm",
			"uri":"arm.png"
		}
	],
	"accessors":[
		{
			"bufferView":0,
			"componentType":5126,
			"count":497,
			"max":[
				0.4999910891056061,
				1.144913911819458,
				0.5
			],
			"min":[
				-0.5000082850456238,
				0.10000023990869522,
				-0.49999967217445374
			],
			"type":"VEC3"
		},
		{
			"bufferView":1,
			"componentType":5126,
			"count":497,
			"type":"VEC2"
		},
		{
			"bufferView":2,
			"componentType":5126,
			"count":497,
			"type":"VEC3"
		},
		{
			"bufferView":3,
			"componentType":5123,
			"count":2880,
			"type":"SCALAR"
		},
		{
			"bufferView":4,
			"componentType":5126,
			"count":151,
			"max":[
				-0.18288563191890717,
				0.21301531791687012,
				0.059521108865737915
			],
			"min":[
				-0.4278533160686493,
				-4.1125428396071584e-08,
				-0.31325575709342957
			],
			"type":"VEC3"
		},
		{
			"bufferView":5,
			"componentType":5126,
			"count":151,
			"type":"VEC2"
		},
		{
			"bufferView":6,
			"componentType":5126,
			"count":151,
			"type":"VEC3"
		},
		{
			"bufferView":7,
			"componentType":5123,
			"count":672,
			"type":"SCALAR"
		},
		{
			"bufferView":8,
			"componentType":5126,
			"count":151,
			"max":[
				0.602234423160553,
				0.5865780115127563,
				0.0646732747554779
			],
			"min":[
				0.43223443627357483,
				0.4165779948234558,
				-0.10532671958208084
			],
			"type":"VEC3"
		},
		{
			"bufferView":9,
			"componentType":5126,
			"count":151,
			"type":"VEC2"
		},
		{
			"bufferView":10,
			"componentType":5126,
			"count":151,
			"type":"VEC3"
		},
		{
			"bufferView":11,
			"componentType":5123,
			"count":672,
			"type":"SCALAR"
		},
		{
			"bufferView":12,
			"componentType":5126,
			"count":151,
			"max":[
				-0.43495187163352966,
				0.5865780115127563,
				0.0646732747554779
			],
			"min":[
				-0.6049518585205078,
				0.4165779948234558,
				-0.10532671958208084
			],
			"type":"VEC3"
		},
		{
			"bufferView":13,
			"componentType":5126,
			"count":151,
			"type":"VEC2"
		},
		{
			"bufferView":14,
			"componentType":5126,
			"count":151,
			"type":"VEC3"
		},
		{
			"bufferView":15,
			"componentType":5123,
			"count":672,
			"type":"SCALAR"
		},
		{
			"bufferView":16,
			"componentType":5126,
			"count":151,
			"max":[
				0.4278533160686493,
				0.21301531791687012,
				0.059521108865737915
			],
			"min":[
				0.18288563191890717,
				-4.1125428396071584e-08,
				-0.31325575709342957
			],
			"type":"VEC3"
		},
		{
			"bufferView":17,
			"componentType":5126,
			"count":151,
			"type":"VEC2"
		},
		{
			"bufferView":18,
			"componentType":5126,
			"count":151,
			"type":"VEC3"
		},
		{
			"bufferView":19,
			"componentType":5126,
			"count":1,
			"max":[
				0.041666666666666664
			],
			"min":[
				0.041666666666666664
			],
			"type":"SCALAR"
		},
		{
			"bufferView":20,
			"componentType":5126,
			"count":1,
			"type":"VEC4"
		},
		{
			"bufferView":21,
			"componentType":5126,
			"count":40,
			"max":[
				1.6666666666666667
			],
			"min":[
				0.041666666666666664
			],
			"type":"SCALAR"
		},
		{
			"bufferView":22,
			"componentType":5126,
			"count":40,
			"type":"VEC3"
		},
		{
			"bufferView":23,
			"componentType":5126,
			"count":40,
			"type":"VEC3"
		},
		{
			"bufferView":24,
			"componentType":5126,
			"count":1,
			"type":"VEC4"
		},
		{
			"bufferView":25,
			"componentType":5126,
			"count":40,
			"type":"VEC4"
		},
		{
			"bufferView":26,
			"componentType":5126,
			"count":40,
			"type":"VEC3"
		},
		{
			"bufferView":27,
			"componentType":5126,
			"count":40,
			"type":"VEC3"
		},
		{
			"bufferView":28,
			"componentType":5126,
			"count":40,
			"type":"VEC4"
		}
	],
	"bufferViews":[
		{
			"buffer":0,
			"byteLength":5964,
			"byteOffset":0,
			"target":34962
		},
		{
			"buffer":0,
			"byteLength":3976,
			"byteOffset":5964,
			"target":34962
		},
		{
			"buffer":0,
			"byteLength":5964,
			"byteOffset":9940,
			"target":34962
		},
		{
			"buffer":0,
			"byteLength":5760,
			"byteOffset":15904,
			"target":34963
		},
		{
			"buffer":0,
			"byteLength":1812,
			"byteOffset":21664,
			"target":34962
		},
		{
			"buffer":0,
			"byteLength":1208,
			"byteOffset":23476,
			"target":34962
		},
		{
			"buffer":0,
			"byteLength":1812,
			"byteOffset":24684,
			"target":34962
		},
		{
			"buffer":0,
			"byteLength":1344,
			"byteOffset":26496,
			"target":34963
		},
		{
			"buffer":0,
			"byteLength":1812,
			"byteOffset":27840,
			"target":34962
		},
		{
			"buffer":0,
			"byteLength":1208,
			"byteOffset":29652,
			"target":34962
		},
		{
			"buffer":0,
			"byteLength":1812,
			"byteOffset":30860,
			"target":34962
		},
		{
			"buffer":0,
			"byteLength":1344,
			"byteOffset":32672,
			"target":34963
		},
		{
			"buffer":0,
			"byteLength":1812,
			"byteOffset":34016,
			"target":34962
		},
		{
			"buffer":0,
			"byteLength":1208,
			"byteOffset":35828,
			"target":34962
		},
		{
			"buffer":0,
			"byteLength":1812,
			"byteOffset":37036,
			"target":34962
		},
		{
			"buffer":0,
			"byteLength":1344,
			"byteOffset":38848,
			"target":34963
		},
		{
			"buffer":0,
			"byteLength":1812,
			"byteOffset":40192,
			"target":34962
		},
		{
			"buffer":0,
			"byteLength":1208,
			"byteOffset":42004,
			"target":34962
		},
		{
			"buffer":0,
			"byteLength":1812,
			"byteOffset":43212,
			"target":34962
		},
		{
			"buffer":0,
			"byteLength":4,
			"byteOffset":45024
		},
		{
			"buffer":0,
			"byteLength":16,
			"byteOffset":45028
		},
		{
			"buffer":0,
			"byteLength":160,
			"byteOffset":45044
		},
		{
			"buffer":0,
			"byteLength":480,
			"byteOffset":45204
		},
		{
			"buffer":0,
			"byteLength":480,
			"byteOffset":45684
		},
		{
			"buffer":0,
			"byteLength":16,
			"byteOffset":46164
		},
		{
			"buffer":0,
			"byteLength":640,
			"byteOffset":46180
		},
		{
			"buffer":0,
			"byteLength":480,
			"byteOffset":46820
		},
		{
			"buffer":0,
			"byteLength":480,
			"byteOffset":47300
		},
		{
			"buffer":0,
			"byteLength":640,
			"byteOffset":47780
		}
	],
	"samplers":[
		{
			"magFilter":9729,
			"minFilter":9987
		}
	],
	"buffers":[
		{
			"byteLength":48420,
			"uri":"3DChara.bin"
		}
	]
}
