{
	"asset":{
		"generator":"Khronos glTF Blender I/O v3.5.30",
		"version":"2.0"
	},
	"extensionsUsed":[
		"KHR_materials_transmission",
		"KHR_materials_specular",
		"KHR_materials_ior"
	],
	"scene":0,
	"scenes":[
		{
			"name":"Scene",
			"nodes":[
				0,
				1,
				2
			]
		}
	],
	"nodes":[
		{
			"mesh":0,
			"name":"Plate"
		},
		{
			"mesh":1,
			"name":"Coffee glass"
		},
		{
			"mesh":2,
			"name":"Teapot"
		}
	],
	"materials":[
		{
			"doubleSided":true,
			"name":"base.002",
			"pbrMetallicRoughness":{
				"baseColorTexture":{
					"index":0
				},
				"metallicFactor":0,
				"roughnessFactor":0.5
			}
		},
		{
			"doubleSided":true,
			"name":"gold",
			"pbrMetallicRoughness":{}
		},
		{
			"doubleSided":true,
			"name":"base.001",
			"pbrMetallicRoughness":{
				"baseColorTexture":{
					"index":1
				},
				"roughnessFactor":0.5
			}
		},
		{
			"doubleSided":true,
			"name":"gold.001",
			"pbrMetallicRoughness":{}
		},
		{
			"doubleSided":true,
			"extensions":{
				"KHR_materials_transmission":{
					"transmissionFactor":0.5
				},
				"KHR_materials_specular":{
					"specularColorFactor":[
						1.0874499596263982,
						1.0874499596263982,
						1.0874499596263982
					]
				},
				"KHR_materials_ior":{
					"ior":1.4500000476837158
				}
			},
			"name":"Chainik",
			"pbrMetallicRoughness":{
				"baseColorTexture":{
					"index":2
				},
				"roughnessFactor":0.5818181037902832
			}
		},
		{
			"doubleSided":true,
			"name":"Gold",
			"pbrMetallicRoughness":{}
		}
	],
	"meshes":[
		{
			"name":"\u0421\u0444\u0435\u0440\u0430.002",
			"primitives":[
				{
					"attributes":{
						"POSITION":0,
						"TEXCOORD_0":1,
						"NORMAL":2
					},
					"indices":3,
					"material":0
				},
				{
					"attributes":{
						"POSITION":4,
						"TEXCOORD_0":5,
						"NORMAL":6
					},
					"indices":7,
					"material":1
				}
			]
		},
		{
			"name":"\u0421\u0444\u0435\u0440\u0430.001",
			"primitives":[
				{
					"attributes":{
						"POSITION":8,
						"TEXCOORD_0":9,
						"NORMAL":10
					},
					"indices":11,
					"material":2
				},
				{
					"attributes":{
						"POSITION":12,
						"TEXCOORD_0":13,
						"NORMAL":14
					},
					"indices":15,
					"material":3
				}
			]
		},
		{
			"name":"\u0421\u0444\u0435\u0440\u0430",
			"primitives":[
				{
					"attributes":{
						"POSITION":16,
						"TEXCOORD_0":17,
						"NORMAL":18
					},
					"indices":19,
					"material":4
				},
				{
					"attributes":{
						"POSITION":20,
						"TEXCOORD_0":21,
						"NORMAL":22
					},
					"indices":23,
					"material":5
				}
			]
		}
	],
	"textures":[
		{
			"sampler":0,
			"source":0
		},
		{
			"sampler":0,
			"source":1
		},
		{
			"sampler":0,
			"source":2
		}
	],
	"images":[
		{
			"mimeType":"image/png",
			"name":"Plate",
			"uri":"Plate.png"
		},
		{
			"mimeType":"image/png",
			"name":"glass",
			"uri":"glass.png"
		},
		{
			"mimeType":"image/png",
			"name":"pot",
			"uri":"pot.png"
		}
	],
	"accessors":[
		{
			"bufferView":0,
			"componentType":5126,
			"count":1312,
			"max":[
				0.35437729954719543,
				0.03676901012659073,
				0.154377281665802
			],
			"min":[
				0.04562273621559143,
				0.00556974159553647,
				-0.1543772667646408
			],
			"type":"VEC3"
		},
		{
			"bufferView":1,
			"componentType":5126,
			"count":1312,
			"type":"VEC2"
		},
		{
			"bufferView":2,
			"componentType":5126,
			"count":1312,
			"type":"VEC3"
		},
		{
			"bufferView":3,
			"componentType":5123,
			"count":2088,
			"type":"SCALAR"
		},
		{
			"bufferView":4,
			"componentType":5126,
			"count":978,
			"max":[
				0.3574017584323883,
				0.03676901012659073,
				0.15740175545215607
			],
			"min":[
				0.04259830713272095,
				-0.00018075061962008476,
				-0.15740171074867249
			],
			"type":"VEC3"
		},
		{
			"bufferView":5,
			"componentType":5126,
			"count":978,
			"type":"VEC2"
		},
		{
			"bufferView":6,
			"componentType":5126,
			"count":978,
			"type":"VEC3"
		},
		{
			"bufferView":7,
			"componentType":5123,
			"count":1704,
			"type":"SCALAR"
		},
		{
			"bufferView":8,
			"componentType":5126,
			"count":1353,
			"max":[
				0.33147740364074707,
				0.17167824506759644,
				0.10980169475078583
			],
			"min":[
				0.09019829332828522,
				0.029719609767198563,
				-0.10980169475078583
			],
			"type":"VEC3"
		},
		{
			"bufferView":9,
			"componentType":5126,
			"count":1353,
			"type":"VEC2"
		},
		{
			"bufferView":10,
			"componentType":5126,
			"count":1353,
			"type":"VEC3"
		},
		{
			"bufferView":11,
			"componentType":5123,
			"count":3933,
			"type":"SCALAR"
		},
		{
			"bufferView":12,
			"componentType":5126,
			"count":789,
			"max":[
				0.33147740364074707,
				0.17167824506759644,
				0.10980169475078583
			],
			"min":[
				0.09019829332828522,
				0.018991265445947647,
				-0.10980169475078583
			],
			"type":"VEC3"
		},
		{
			"bufferView":13,
			"componentType":5126,
			"count":789,
			"type":"VEC2"
		},
		{
			"bufferView":14,
			"componentType":5126,
			"count":789,
			"type":"VEC3"
		},
		{
			"bufferView":15,
			"componentType":5123,
			"count":1965,
			"type":"SCALAR"
		},
		{
			"bufferView":16,
			"componentType":5126,
			"count":952,
			"max":[
				-0.004166468977928162,
				0.3941631019115448,
				0.15172483026981354
			],
			"min":[
				-0.42717453837394714,
				-4.3659936636686325e-05,
				-0.15172487497329712
			],
			"type":"VEC3"
		},
		{
			"bufferView":17,
			"componentType":5126,
			"count":952,
			"type":"VEC2"
		},
		{
			"bufferView":18,
			"componentType":5126,
			"count":952,
			"type":"VEC3"
		},
		{
			"bufferView":19,
			"componentType":5123,
			"count":4920,
			"type":"SCALAR"
		},
		{
			"bufferView":20,
			"componentType":5126,
			"count":489,
			"max":[
				0.03201422095298767,
				0.3969789445400238,
				0.11121803522109985
			],
			"min":[
				-0.383708119392395,
				0.09059183299541473,
				-0.1364678591489792
			],
			"type":"VEC3"
		},
		{
			"bufferView":21,
			"componentType":5126,
			"count":489,
			"type":"VEC2"
		},
		{
			"bufferView":22,
			"componentType":5126,
			"count":489,
			"type":"VEC3"
		},
		{
			"bufferView":23,
			"componentType":5123,
			"count":2190,
			"type":"SCALAR"
		}
	],
	"bufferViews":[
		{
			"buffer":0,
			"byteLength":15744,
			"byteOffset":0,
			"target":34962
		},
		{
			"buffer":0,
			"byteLength":10496,
			"byteOffset":15744,
			"target":34962
		},
		{
			"buffer":0,
			"byteLength":15744,
			"byteOffset":26240,
			"target":34962
		},
		{
			"buffer":0,
			"byteLength":4176,
			"byteOffset":41984,
			"target":34963
		},
		{
			"buffer":0,
			"byteLength":11736,
			"byteOffset":46160,
			"target":34962
		},
		{
			"buffer":0,
			"byteLength":7824,
			"byteOffset":57896,
			"target":34962
		},
		{
			"buffer":0,
			"byteLength":11736,
			"byteOffset":65720,
			"target":34962
		},
		{
			"buffer":0,
			"byteLength":3408,
			"byteOffset":77456,
			"target":34963
		},
		{
			"buffer":0,
			"byteLength":16236,
			"byteOffset":80864,
			"target":34962
		},
		{
			"buffer":0,
			"byteLength":10824,
			"byteOffset":97100,
			"target":34962
		},
		{
			"buffer":0,
			"byteLength":16236,
			"byteOffset":107924,
			"target":34962
		},
		{
			"buffer":0,
			"byteLength":7866,
			"byteOffset":124160,
			"target":34963
		},
		{
			"buffer":0,
			"byteLength":9468,
			"byteOffset":132028,
			"target":34962
		},
		{
			"buffer":0,
			"byteLength":6312,
			"byteOffset":141496,
			"target":34962
		},
		{
			"buffer":0,
			"byteLength":9468,
			"byteOffset":147808,
			"target":34962
		},
		{
			"buffer":0,
			"byteLength":3930,
			"byteOffset":157276,
			"target":34963
		},
		{
			"buffer":0,
			"byteLength":11424,
			"byteOffset":161208,
			"target":34962
		},
		{
			"buffer":0,
			"byteLength":7616,
			"byteOffset":172632,
			"target":34962
		},
		{
			"buffer":0,
			"byteLength":11424,
			"byteOffset":180248,
			"target":34962
		},
		{
			"buffer":0,
			"byteLength":9840,
			"byteOffset":191672,
			"target":34963
		},
		{
			"buffer":0,
			"byteLength":5868,
			"byteOffset":201512,
			"target":34962
		},
		{
			"buffer":0,
			"byteLength":3912,
			"byteOffset":207380,
			"target":34962
		},
		{
			"buffer":0,
			"byteLength":5868,
			"byteOffset":211292,
			"target":34962
		},
		{
			"buffer":0,
			"byteLength":4380,
			"byteOffset":217160,
			"target":34963
		}
	],
	"samplers":[
		{
			"magFilter":9729,
			"minFilter":9987
		}
	],
	"buffers":[
		{
			"byteLength":221540,
			"uri":"Tea_set.bin"
		}
	]
}
