{
	"asset":{
		"generator":"Khronos glTF Blender I/O v3.5.30",
		"version":"2.0"
	},
	"extensionsUsed":[
		"KHR_materials_specular",
		"KHR_materials_ior"
	],
	"scene":0,
	"scenes":[
		{
			"name":"Scene",
			"nodes":[
				0,
				5,
				6
			]
		}
	],
	"nodes":[
		{
			"mesh":0,
			"name":"barn.034"
		},
		{
			"mesh":1,
			"name":"Eggs_11"
		},
		{
			"mesh":2,
			"name":"Eggs_12"
		},
		{
			"mesh":3,
			"name":"Eggs_2"
		},
		{
			"mesh":4,
			"name":"Eggs_4"
		},
		{
			"children":[
				1,
				2,
				3,
				4
			],
			"name":"Eggs",
			"translation":[
				0,
				0.20827500522136688,
				0
			]
		},
		{
			"mesh":5,
			"name":"COL",
			"scale":[
				1,
				0.27124547958374023,
				1
			],
			"translation":[
				0,
				0.12999999523162842,
				0
			]
		}
	],
	"materials":[
		{
			"doubleSided":true,
			"extensions":{
				"KHR_materials_specular":{
					"specularColorFactor":[
						0,
						0,
						0
					]
				},
				"KHR_materials_ior":{
					"ior":1.4500000476837158
				}
			},
			"name":"Material",
			"normalTexture":{
				"index":0
			},
			"pbrMetallicRoughness":{
				"baseColorTexture":{
					"index":1
				},
				"metallicFactor":0,
				"metallicRoughnessTexture":{
					"index":2
				}
			}
		},
		{
			"doubleSided":true,
			"extensions":{
				"KHR_materials_specular":{
					"specularColorFactor":[
						0,
						0,
						0
					]
				},
				"KHR_materials_ior":{
					"ior":1.4500000476837158
				}
			},
			"name":"phong1",
			"normalTexture":{
				"index":3
			},
			"pbrMetallicRoughness":{
				"baseColorTexture":{
					"index":4
				},
				"metallicFactor":0
			}
		}
	],
	"meshes":[
		{
			"name":"Cube.025",
			"primitives":[
				{
					"attributes":{
						"POSITION":0,
						"TEXCOORD_0":1,
						"NORMAL":2
					},
					"indices":3,
					"material":0
				}
			]
		},
		{
			"name":"\u30e1\u30c3\u30b7\u30e5.010",
			"primitives":[
				{
					"attributes":{
						"POSITION":4,
						"TEXCOORD_0":5,
						"NORMAL":6
					},
					"indices":7,
					"material":1
				}
			]
		},
		{
			"name":"\u30e1\u30c3\u30b7\u30e5.011",
			"primitives":[
				{
					"attributes":{
						"POSITION":8,
						"TEXCOORD_0":9,
						"NORMAL":10
					},
					"indices":7,
					"material":1
				}
			]
		},
		{
			"name":"\u30e1\u30c3\u30b7\u30e5.001",
			"primitives":[
				{
					"attributes":{
						"POSITION":11,
						"TEXCOORD_0":12,
						"NORMAL":13
					},
					"indices":7,
					"material":1
				}
			]
		},
		{
			"name":"\u30e1\u30c3\u30b7\u30e5.003",
			"primitives":[
				{
					"attributes":{
						"POSITION":14,
						"TEXCOORD_0":15,
						"NORMAL":16
					},
					"indices":7,
					"material":1
				}
			]
		},
		{
			"name":"\u7403",
			"primitives":[
				{
					"attributes":{
						"POSITION":17,
						"TEXCOORD_0":18,
						"NORMAL":19
					},
					"indices":20
				}
			]
		}
	],
	"textures":[
		{
			"sampler":0,
			"source":0
		},
		{
			"sampler":0,
			"source":1
		},
		{
			"sampler":0,
			"source":2
		},
		{
			"sampler":0,
			"source":3
		},
		{
			"sampler":0,
			"source":4
		}
	],
	"images":[
		{
			"mimeType":"image/png",
			"name":"Nest_Normal",
			"uri":"Nest_Normal.png"
		},
		{
			"mimeType":"image/png",
			"name":"Nest_Base",
			"uri":"Nest_Base.png"
		},
		{
			"mimeType":"image/png",
			"name":"Nest_R",
			"uri":"Nest_R.png"
		},
		{
			"mimeType":"image/png",
			"name":"Normal",
			"uri":"Normal.png"
		},
		{
			"mimeType":"image/png",
			"name":"BaseColor",
			"uri":"BaseColor.png"
		}
	],
	"accessors":[
		{
			"bufferView":0,
			"componentType":5126,
			"count":4245,
			"max":[
				0.9070359468460083,
				0.4264529049396515,
				0.8651506304740906
			],
			"min":[
				-0.92917799949646,
				-0.09642709791660309,
				-0.9766178131103516
			],
			"type":"VEC3"
		},
		{
			"bufferView":1,
			"componentType":5126,
			"count":4245,
			"type":"VEC2"
		},
		{
			"bufferView":2,
			"componentType":5126,
			"count":4245,
			"type":"VEC3"
		},
		{
			"bufferView":3,
			"componentType":5123,
			"count":13047,
			"type":"SCALAR"
		},
		{
			"bufferView":4,
			"componentType":5126,
			"count":872,
			"max":[
				0.0023811161518096924,
				0.38381046056747437,
				0.433171808719635
			],
			"min":[
				-0.40690380334854126,
				-0.12799189984798431,
				0.022383153438568115
			],
			"type":"VEC3"
		},
		{
			"bufferView":5,
			"componentType":5126,
			"count":872,
			"type":"VEC2"
		},
		{
			"bufferView":6,
			"componentType":5126,
			"count":872,
			"type":"VEC3"
		},
		{
			"bufferView":7,
			"componentType":5123,
			"count":5220,
			"type":"SCALAR"
		},
		{
			"bufferView":8,
			"componentType":5126,
			"count":872,
			"max":[
				-0.10836012661457062,
				0.42615050077438354,
				0.00731581449508667
			],
			"min":[
				-0.5140911936759949,
				-0.08468422293663025,
				-0.40806686878204346
			],
			"type":"VEC3"
		},
		{
			"bufferView":9,
			"componentType":5126,
			"count":872,
			"type":"VEC2"
		},
		{
			"bufferView":10,
			"componentType":5126,
			"count":872,
			"type":"VEC3"
		},
		{
			"bufferView":11,
			"componentType":5126,
			"count":872,
			"max":[
				0.3546026945114136,
				0.40710484981536865,
				-0.05142916738986969
			],
			"min":[
				-0.050952404737472534,
				-0.11310930550098419,
				-0.4583408236503601
			],
			"type":"VEC3"
		},
		{
			"bufferView":12,
			"componentType":5126,
			"count":872,
			"type":"VEC2"
		},
		{
			"bufferView":13,
			"componentType":5126,
			"count":872,
			"type":"VEC3"
		},
		{
			"bufferView":14,
			"componentType":5126,
			"count":872,
			"max":[
				0.4557887315750122,
				0.44781845808029175,
				0.40835440158843994
			],
			"min":[
				0.04231218993663788,
				-0.06042879819869995,
				-0.0014643967151641846
			],
			"type":"VEC3"
		},
		{
			"bufferView":15,
			"componentType":5126,
			"count":872,
			"type":"VEC2"
		},
		{
			"bufferView":16,
			"componentType":5126,
			"count":872,
			"type":"VEC3"
		},
		{
			"bufferView":17,
			"componentType":5126,
			"count":1984,
			"max":[
				0.9999997019767761,
				1,
				0.9999993443489075
			],
			"min":[
				-0.9999990463256836,
				-1,
				-1
			],
			"type":"VEC3"
		},
		{
			"bufferView":18,
			"componentType":5126,
			"count":1984,
			"type":"VEC2"
		},
		{
			"bufferView":19,
			"componentType":5126,
			"count":1984,
			"type":"VEC3"
		},
		{
			"bufferView":20,
			"componentType":5123,
			"count":2880,
			"type":"SCALAR"
		}
	],
	"bufferViews":[
		{
			"buffer":0,
			"byteLength":50940,
			"byteOffset":0,
			"target":34962
		},
		{
			"buffer":0,
			"byteLength":33960,
			"byteOffset":50940,
			"target":34962
		},
		{
			"buffer":0,
			"byteLength":50940,
			"byteOffset":84900,
			"target":34962
		},
		{
			"buffer":0,
			"byteLength":26094,
			"byteOffset":135840,
			"target":34963
		},
		{
			"buffer":0,
			"byteLength":10464,
			"byteOffset":161936,
			"target":34962
		},
		{
			"buffer":0,
			"byteLength":6976,
			"byteOffset":172400,
			"target":34962
		},
		{
			"buffer":0,
			"byteLength":10464,
			"byteOffset":179376,
			"target":34962
		},
		{
			"buffer":0,
			"byteLength":10440,
			"byteOffset":189840,
			"target":34963
		},
		{
			"buffer":0,
			"byteLength":10464,
			"byteOffset":200280,
			"target":34962
		},
		{
			"buffer":0,
			"byteLength":6976,
			"byteOffset":210744,
			"target":34962
		},
		{
			"buffer":0,
			"byteLength":10464,
			"byteOffset":217720,
			"target":34962
		},
		{
			"buffer":0,
			"byteLength":10464,
			"byteOffset":228184,
			"target":34962
		},
		{
			"buffer":0,
			"byteLength":6976,
			"byteOffset":238648,
			"target":34962
		},
		{
			"buffer":0,
			"byteLength":10464,
			"byteOffset":245624,
			"target":34962
		},
		{
			"buffer":0,
			"byteLength":10464,
			"byteOffset":256088,
			"target":34962
		},
		{
			"buffer":0,
			"byteLength":6976,
			"byteOffset":266552,
			"target":34962
		},
		{
			"buffer":0,
			"byteLength":10464,
			"byteOffset":273528,
			"target":34962
		},
		{
			"buffer":0,
			"byteLength":23808,
			"byteOffset":283992,
			"target":34962
		},
		{
			"buffer":0,
			"byteLength":15872,
			"byteOffset":307800,
			"target":34962
		},
		{
			"buffer":0,
			"byteLength":23808,
			"byteOffset":323672,
			"target":34962
		},
		{
			"buffer":0,
			"byteLength":5760,
			"byteOffset":347480,
			"target":34963
		}
	],
	"samplers":[
		{
			"magFilter":9729,
			"minFilter":9987
		}
	],
	"buffers":[
		{
			"byteLength":353240,
			"uri":"EggNest.bin"
		}
	]
}
